ISO-10303-21;
HEADER;
FILE_DESCRIPTION (( 'STEP AP203' ),
    '1' );
FILE_NAME ('L_bracket.STEP',
    '2026-07-27T13:45:57',
    ( '' ),
    ( '' ),
    'SwSTEP 2.0',
    'SolidWorks 2026',
    '' );
FILE_SCHEMA (( 'CONFIG_CONTROL_DESIGN' ));
ENDSEC;

DATA;
#1 = PLANE ( 'NONE',  #898 ) ;
#2 = EDGE_CURVE ( 'NONE', #324, #33, #776, .T. ) ;
#3 = CARTESIAN_POINT ( 'NONE',  ( 1.999999999999974021, 52.50000000000000711, -4.999999999999997335 ) ) ;
#4 = DIRECTION ( 'NONE',  ( 0.000000000000000000, -1.000000000000000000, 3.505967446184704325E-15 ) ) ;
#5 = PERSON_AND_ORGANIZATION ( #675, #778 ) ;
#6 = CARTESIAN_POINT ( 'NONE',  ( -30.00000000000000000, -50.00000000000000000, -5.000000000000000000 ) ) ;
#7 = DIRECTION ( 'NONE',  ( 0.000000000000000000, 0.000000000000000000, 1.000000000000000000 ) ) ;
#8 = ORIENTED_EDGE ( 'NONE', *, *, #411, .F. ) ;
#9 = ORIENTED_EDGE ( 'NONE', *, *, #473, .T. ) ;
#10 = APPROVAL_DATE_TIME ( #365, #854 ) ;
#11 = VECTOR ( 'NONE', #588, 1000.000000000000000 ) ;
#12 = DIRECTION ( 'NONE',  ( 0.000000000000000000, 0.7071067811865475727, -0.7071067811865475727 ) ) ;
#13 = VECTOR ( 'NONE', #155, 999.9999999999998863 ) ;
#14 = CC_DESIGN_APPROVAL ( #526, ( #532 ) ) ;
#15 = FACE_OUTER_BOUND ( 'NONE', #756, .T. ) ;
#16 = ADVANCED_FACE ( 'NONE', ( #193 ), #772, .F. ) ;
#17 = ORIENTED_EDGE ( 'NONE', *, *, #808, .T. ) ;
#18 = VERTEX_POINT ( 'NONE', #843 ) ;
#19 = PERSON_AND_ORGANIZATION ( #675, #778 ) ;
#20 = FACE_OUTER_BOUND ( 'NONE', #469, .T. ) ;
#21 = DIRECTION ( 'NONE',  ( 0.000000000000000000, 0.000000000000000000, -1.000000000000000000 ) ) ;
#22 = ORIENTED_EDGE ( 'NONE', *, *, #439, .T. ) ;
#23 = EDGE_CURVE ( 'NONE', #520, #418, #406, .T. ) ;
#24 = ORIENTED_EDGE ( 'NONE', *, *, #381, .T. ) ;
#25 = CARTESIAN_POINT ( 'NONE',  ( 1.999999999999972244, 58.23660000000000991, 5.431490289955988260 ) ) ;
#26 = DIRECTION ( 'NONE',  ( 0.000000000000000000, -3.700743415417184787E-15, -1.000000000000000000 ) ) ;
#27 = ORIENTED_EDGE ( 'NONE', *, *, #159, .T. ) ;
#28 = ORIENTED_EDGE ( 'NONE', *, *, #681, .F. ) ;
#29 = VECTOR ( 'NONE', #836, 1000.000000000000000 ) ;
#30 = DIRECTION ( 'NONE',  ( 0.000000000000000000, -3.700743415417184787E-15, -1.000000000000000000 ) ) ;
#31 = EDGE_LOOP ( 'NONE', ( #663, #880, #272, #393 ) ) ;
#32 = AXIS2_PLACEMENT_3D ( 'NONE', #692, #191, #30 ) ;
#33 = VERTEX_POINT ( 'NONE', #344 ) ;
#34 = VECTOR ( 'NONE', #657, 1000.000000000000000 ) ;
#35 = EDGE_CURVE ( 'NONE', #782, #201, #622, .T. ) ;
#36 = CARTESIAN_POINT ( 'NONE',  ( 0.000000000000000000, 58.23660000000059966, 72.50000000000001421 ) ) ;
#37 = ORIENTED_EDGE ( 'NONE', *, *, #288, .F. ) ;
#38 = ORIENTED_EDGE ( 'NONE', *, *, #522, .F. ) ;
#39 = EDGE_CURVE ( 'NONE', #608, #94, #690, .T. ) ;
#40 = CARTESIAN_POINT ( 'NONE',  ( -29.99999999999998579, 52.50000000000000711, -4.999999999999996447 ) ) ;
#41 = ORIENTED_EDGE ( 'NONE', *, *, #103, .F. ) ;
#42 = ORIENTED_EDGE ( 'NONE', *, *, #103, .T. ) ;
#43 = CARTESIAN_POINT ( 'NONE',  ( 4.999999999999663380, 53.08893561072787293, 0.2838738365102052019 ) ) ;
#44 = CYLINDRICAL_SURFACE ( 'NONE', #32, 7.500000000000007105 ) ;
#45 = ORIENTED_EDGE ( 'NONE', *, *, #90, .F. ) ;
#46 = EDGE_CURVE ( 'NONE', #735, #259, #618, .T. ) ;
#47 = DIRECTION ( 'NONE',  ( 1.000000000000000000, 0.000000000000000000, 0.000000000000000000 ) ) ;
#48 = AXIS2_PLACEMENT_3D ( 'NONE', #85, #606, #391 ) ;
#49 = CARTESIAN_POINT ( 'NONE',  ( 29.99999999999999289, -50.00000000000000000, -5.000000000000000000 ) ) ;
#50 = ORIENTED_EDGE ( 'NONE', *, *, #829, .F. ) ;
#51 = PLANE ( 'NONE',  #196 ) ;
#52 = ADVANCED_FACE ( 'NONE', ( #910 ), #838, .F. ) ;
#53 = LINE ( 'NONE', #798, #378 ) ;
#54 = ORIENTED_EDGE ( 'NONE', *, *, #473, .F. ) ;
#55 = FACE_BOUND ( 'NONE', #893, .T. ) ;
#56 = FACE_OUTER_BOUND ( 'NONE', #924, .T. ) ;
#57 = VERTEX_POINT ( 'NONE', #775 ) ;
#58 = CARTESIAN_POINT ( 'NONE',  ( 4.995343234695505785, 53.23660000000000281, 0.7365999999999970349 ) ) ;
#59 = CIRCLE ( 'NONE', #48, 7.500000000000000000 ) ;
#60 =( LENGTH_UNIT ( ) NAMED_UNIT ( * ) SI_UNIT ( .MILLI., .METRE. ) );
#61 = EDGE_CURVE ( 'NONE', #742, #111, #551, .T. ) ;
#62 = DIRECTION ( 'NONE',  ( 1.000000000000000000, 0.000000000000000000, 0.000000000000000000 ) ) ;
#63 = DIRECTION ( 'NONE',  ( -0.000000000000000000, 1.000000000000000000, -3.491481338843133355E-15 ) ) ;
#64 = DIRECTION ( 'NONE',  ( 0.000000000000000000, 0.7071067811865462405, -0.7071067811865487940 ) ) ;
#65 = LINE ( 'NONE', #419, #271 ) ;
#66 = CARTESIAN_POINT ( 'NONE',  ( 5.000000000000592415, 52.88524389775336232, 0.08003851010728450788 ) ) ;
#67 = ADVANCED_BREP_SHAPE_REPRESENTATION ( 'L_bracket', ( #220, #928 ), #289 ) ;
#68 = LINE ( 'NONE', #652, #806 ) ;
#69 = CARTESIAN_POINT ( 'NONE',  ( 29.99999999999999289, -50.00000000000000000, -5.000000000000000000 ) ) ;
#70 = EDGE_CURVE ( 'NONE', #259, #174, #703, .T. ) ;
#71 = CARTESIAN_POINT ( 'NONE',  ( -2.000000000000027978, 0.000000000000000000, -5.000000000000000000 ) ) ;
#72 = CIRCLE ( 'NONE', #839, 7.500000000000000000 ) ;
#73 = AXIS2_PLACEMENT_3D ( 'NONE', #160, #523, #728 ) ;
#74 = LINE ( 'NONE', #95, #592 ) ;
#75 = CARTESIAN_POINT ( 'NONE',  ( -4.995343234695560852, 53.23660000000000281, 0.7365999999999970349 ) ) ;
#76 = EDGE_CURVE ( 'NONE', #602, #481, #487, .T. ) ;
#77 = SECURITY_CLASSIFICATION_LEVEL ( 'unclassified' ) ;
#78 = DIRECTION ( 'NONE',  ( -1.000000000000000000, -0.000000000000000000, -0.000000000000000000 ) ) ;
#79 = CARTESIAN_POINT ( 'NONE',  ( -29.99999999999999289, 52.50000000000000711, 0.7365999999999995884 ) ) ;
#80 = EDGE_LOOP ( 'NONE', ( #383, #632, #900, #464 ) ) ;
#81 = EDGE_LOOP ( 'NONE', ( #414, #535, #389, #485 ) ) ;
#82 = PERSON_AND_ORGANIZATION ( #675, #778 ) ;
#83 = ADVANCED_FACE ( 'NONE', ( #55, #925, #922 ), #51, .T. ) ;
#84 = DIRECTION ( 'NONE',  ( -0.000000000000000000, 3.505967446184704325E-15, 1.000000000000000000 ) ) ;
#85 = CARTESIAN_POINT ( 'NONE',  ( 0.000000000000000000, 53.23660000000007386, 20.00000000000000000 ) ) ;
#86 = ORIENTED_EDGE ( 'NONE', *, *, #931, .F. ) ;
#87 = PERSON_AND_ORGANIZATION_ROLE ( 'design_owner' ) ;
#88 = VECTOR ( 'NONE', #559, 1000.000000000000000 ) ;
#89 = DIRECTION ( 'NONE',  ( -0.000000000000000000, -1.000000000000000000, -0.000000000000000000 ) ) ;
#90 = EDGE_CURVE ( 'NONE', #603, #476, #623, .T. ) ;
#91 = AXIS2_PLACEMENT_3D ( 'NONE', #221, #150, #664 ) ;
#92 = CARTESIAN_POINT ( 'NONE',  ( 29.99999999999998579, 58.23660000000000281, 0.7365999999999794934 ) ) ;
#93 = ORIENTED_EDGE ( 'NONE', *, *, #202, .F. ) ;
#94 = VERTEX_POINT ( 'NONE', #511 ) ;
#95 = CARTESIAN_POINT ( 'NONE',  ( -29.99999999999999289, 53.23660000000033676, 95.00000000000002842 ) ) ;
#96 = CARTESIAN_POINT ( 'NONE',  ( 1.999999999999972244, 58.23660000000000281, -1.927557790034509067E-13 ) ) ;
#97 = ORIENTED_EDGE ( 'NONE', *, *, #372, .T. ) ;
#98 = ORIENTED_EDGE ( 'NONE', *, *, #202, .T. ) ;
#99 = APPROVAL_STATUS ( 'not_yet_approved' ) ;
#100 = DIRECTION ( 'NONE',  ( 0.000000000000000000, -3.505967446184704325E-15, -1.000000000000000000 ) ) ;
#101 = VERTEX_POINT ( 'NONE', #359 ) ;
#102 = ORIENTED_EDGE ( 'NONE', *, *, #630, .T. ) ;
#103 = EDGE_CURVE ( 'NONE', #742, #521, #138, .T. ) ;
#104 = AXIS2_PLACEMENT_3D ( 'NONE', #755, #455, #810 ) ;
#105 = AXIS2_PLACEMENT_3D ( 'NONE', #400, #176, #470 ) ;
#106 = DIRECTION ( 'NONE',  ( 1.000000000000000000, 0.000000000000000000, 0.000000000000000000 ) ) ;
#107 = ORIENTED_EDGE ( 'NONE', *, *, #261, .T. ) ;
#108 = DIRECTION ( 'NONE',  ( 1.000000000000000000, -0.000000000000000000, -0.000000000000000000 ) ) ;
#109 = ADVANCED_FACE ( 'NONE', ( #785 ), #711, .F. ) ;
#110 = DIRECTION ( 'NONE',  ( 1.000000000000000000, 0.000000000000000000, 0.000000000000000000 ) ) ;
#111 = VERTEX_POINT ( 'NONE', #570 ) ;
#112 = DIRECTION ( 'NONE',  ( -0.000000000000000000, -0.000000000000000000, 1.000000000000000000 ) ) ;
#113 = EDGE_CURVE ( 'NONE', #742, #881, #65, .T. ) ;
#114 = DIRECTION ( 'NONE',  ( -0.000000000000000000, -1.000000000000000000, 3.505967446184704325E-15 ) ) ;
#115 = FACE_OUTER_BOUND ( 'NONE', #758, .T. ) ;
#116 = EDGE_LOOP ( 'NONE', ( #537, #465, #842, #234 ) ) ;
#117 = ORIENTED_EDGE ( 'NONE', *, *, #544, .F. ) ;
#118 = CARTESIAN_POINT ( 'NONE',  ( 29.99999999999997158, 53.23660000000000281, 0.7365999999999970349 ) ) ;
#119 = EDGE_CURVE ( 'NONE', #602, #837, #353, .T. ) ;
#120 = EDGE_LOOP ( 'NONE', ( #45, #54 ) ) ;
#121 = CARTESIAN_POINT ( 'NONE',  ( 0.000000000000000000, 32.50000000000000000, -5.000000000000002665 ) ) ;
#122 = CIRCLE ( 'NONE', #321, 5.736599999999997479 ) ;
#123 = CARTESIAN_POINT ( 'NONE',  ( 0.000000000000000000, 58.23660000000042203, 19.99999999999998224 ) ) ;
#124 = ORIENTED_EDGE ( 'NONE', *, *, #908, .T. ) ;
#125 = EDGE_LOOP ( 'NONE', ( #543, #706 ) ) ;
#126 = CARTESIAN_POINT ( 'NONE',  ( -29.99999999999999289, 52.50000000000000711, 0.7365999999999995884 ) ) ;
#127 = ORIENTED_EDGE ( 'NONE', *, *, #764, .F. ) ;
#128 = DIRECTION ( 'NONE',  ( 0.000000000000000000, 1.000000000000000000, 0.000000000000000000 ) ) ;
#129 = ADVANCED_FACE ( 'NONE', ( #425 ), #430, .T. ) ;
#130 = DIRECTION ( 'NONE',  ( 1.000000000000000000, 0.000000000000000000, 0.000000000000000000 ) ) ;
#131 = CARTESIAN_POINT ( 'NONE',  ( -2.775557561562891351E-14, 61.83660000000000423, 9.031490289955975470 ) ) ;
#132 = DIRECTION ( 'NONE',  ( 0.000000000000000000, 0.000000000000000000, 1.000000000000000000 ) ) ;
#133 = CIRCLE ( 'NONE', #666, 5.736599999999997479 ) ;
#134 = CIRCLE ( 'NONE', #686, 7.500000000000000000 ) ;
#135 = CIRCLE ( 'NONE', #91, 0.7365999999999970349 ) ;
#136 =( NAMED_UNIT ( * ) SI_UNIT ( $, .STERADIAN. ) SOLID_ANGLE_UNIT ( ) );
#137 = DIRECTION ( 'NONE',  ( 0.000000000000000000, -0.7071067811865476838, -0.7071067811865473507 ) ) ;
#138 = LINE ( 'NONE', #863, #821 ) ;
#139 = DIRECTION ( 'NONE',  ( -0.000000000000000000, 3.505967446184704325E-15, 1.000000000000000000 ) ) ;
#140 = CARTESIAN_POINT ( 'NONE',  ( 1.999999999999972244, 0.000000000000000000, -5.000000000000000000 ) ) ;
#141 = EDGE_CURVE ( 'NONE', #201, #174, #503, .T. ) ;
#142 = DIRECTION ( 'NONE',  ( 1.000000000000000000, 0.000000000000000000, 0.000000000000000000 ) ) ;
#143 = LINE ( 'NONE', #864, #564 ) ;
#144 = CARTESIAN_POINT ( 'NONE',  ( -30.00000000000000000, -50.00000000000000000, -5.000000000000000000 ) ) ;
#145 = EDGE_CURVE ( 'NONE', #101, #247, #721, .T. ) ;
#146 = CARTESIAN_POINT ( 'NONE',  ( 4.995343234695505785, 53.23660000000000281, 0.7365999999999970349 ) ) ;
#147 = AXIS2_PLACEMENT_3D ( 'NONE', #524, #879, #100 ) ;
#148 = DATE_TIME_ROLE ( 'creation_date' ) ;
#149 = APPROVAL_PERSON_ORGANIZATION ( #818, #813, #593 ) ;
#150 = DIRECTION ( 'NONE',  ( 1.000000000000000000, 0.000000000000000000, 0.000000000000000000 ) ) ;
#151 = CARTESIAN_POINT ( 'NONE',  ( -4.598501486721842113, 39.50558732988704236, 0.000000000000000000 ) ) ;
#152 = VERTEX_POINT ( 'NONE', #58 ) ;
#153 = PERSON_AND_ORGANIZATION ( #675, #778 ) ;
#154 = FACE_OUTER_BOUND ( 'NONE', #747, .T. ) ;
#155 = DIRECTION ( 'NONE',  ( -0.000000000000000000, 0.7071067811865477948, 0.7071067811865473507 ) ) ;
#156 = ORIENTED_EDGE ( 'NONE', *, *, #76, .T. ) ;
#157 = ORIENTED_EDGE ( 'NONE', *, *, #446, .T. ) ;
#158 = DATE_AND_TIME ( #599, #322 ) ;
#159 = EDGE_CURVE ( 'NONE', #94, #418, #349, .T. ) ;
#160 = CARTESIAN_POINT ( 'NONE',  ( 1.999999999999974021, 52.50000000000000711, 0.7365999999999995884 ) ) ;
#161 = LINE ( 'NONE', #519, #11 ) ;
#162 = ORIENTED_EDGE ( 'NONE', *, *, #312, .F. ) ;
#163 = ORIENTED_EDGE ( 'NONE', *, *, #39, .F. ) ;
#164 = VECTOR ( 'NONE', #108, 1000.000000000000000 ) ;
#165 = CARTESIAN_POINT ( 'NONE',  ( -29.99999999999998579, 52.50000000000000711, 0.7365999999999995884 ) ) ;
#166 = VECTOR ( 'NONE', #489, 1000.000000000000000 ) ;
#167 = VECTOR ( 'NONE', #427, 1000.000000000000000 ) ;
#168 = PLANE ( 'NONE',  #654 ) ;
#169 = ORIENTED_EDGE ( 'NONE', *, *, #630, .F. ) ;
#170 = ORIENTED_EDGE ( 'NONE', *, *, #207, .F. ) ;
#171 = PERSON_AND_ORGANIZATION_ROLE ( 'classification_officer' ) ;
#172 = FACE_BOUND ( 'NONE', #125, .T. ) ;
#173 = ADVANCED_FACE ( 'NONE', ( #642, #282, #802 ), #1, .T. ) ;
#174 = VERTEX_POINT ( 'NONE', #939 ) ;
#175 = ORIENTED_EDGE ( 'NONE', *, *, #90, .T. ) ;
#176 = DIRECTION ( 'NONE',  ( 0.000000000000000000, 0.000000000000000000, -1.000000000000000000 ) ) ;
#177 = EDGE_LOOP ( 'NONE', ( #774, #369, #340, #892 ) ) ;
#178 = CC_DESIGN_PERSON_AND_ORGANIZATION_ASSIGNMENT ( #19, #442, ( #532 ) ) ;
#179 = EDGE_LOOP ( 'NONE', ( #317, #339, #163, #347 ) ) ;
#180 = VECTOR ( 'NONE', #644, 1000.000000000000000 ) ;
#181 = FACE_OUTER_BOUND ( 'NONE', #811, .T. ) ;
#182 = EDGE_LOOP ( 'NONE', ( #451, #683, #17, #766 ) ) ;
#183 = AXIS2_PLACEMENT_3D ( 'NONE', #284, #403, #216 ) ;
#184 = DIRECTION ( 'NONE',  ( -0.000000000000000000, -1.000000000000000000, -0.000000000000000000 ) ) ;
#185 = EDGE_CURVE ( 'NONE', #251, #476, #286, .T. ) ;
#186 = CARTESIAN_POINT ( 'NONE',  ( -30.00000000000000000, -50.00000000000000000, 0.000000000000000000 ) ) ;
#187 = CARTESIAN_POINT ( 'NONE',  ( 9.184850993605165694E-16, 53.23660000000030834, 87.50000000000004263 ) ) ;
#188 = VERTEX_POINT ( 'NONE', #869 ) ;
#189 = ORIENTED_EDGE ( 'NONE', *, *, #713, .F. ) ;
#190 = ADVANCED_FACE ( 'NONE', ( #364 ), #219, .F. ) ;
#191 = DIRECTION ( 'NONE',  ( -0.000000000000000000, -1.000000000000000000, 3.505967446184704325E-15 ) ) ;
#192 = ORIENTED_EDGE ( 'NONE', *, *, #61, .T. ) ;
#193 = FACE_OUTER_BOUND ( 'NONE', #31, .T. ) ;
#194 = DIRECTION ( 'NONE',  ( 0.000000000000000000, 0.000000000000000000, 1.000000000000000000 ) ) ;
#195 = VERTEX_POINT ( 'NONE', #726 ) ;
#196 = AXIS2_PLACEMENT_3D ( 'NONE', #268, #850, #197 ) ;
#197 = DIRECTION ( 'NONE',  ( -1.000000000000000000, 0.000000000000000000, -0.000000000000000000 ) ) ;
#198 = CIRCLE ( 'NONE', #714, 5.736599999999997479 ) ;
#199 = AXIS2_PLACEMENT_3D ( 'NONE', #933, #643, #212 ) ;
#200 = DIRECTION ( 'NONE',  ( -1.000000000000000000, 0.000000000000000000, 0.000000000000000000 ) ) ;
#201 = VERTEX_POINT ( 'NONE', #69 ) ;
#202 = EDGE_CURVE ( 'NONE', #521, #563, #655, .T. ) ;
#203 = DIRECTION ( 'NONE',  ( -0.000000000000000000, -1.000000000000000000, 3.505967446184704325E-15 ) ) ;
#204 = CARTESIAN_POINT ( 'NONE',  ( 9.184850993605159777E-16, 53.23660000000010228, 27.50000000000000000 ) ) ;
#205 = LINE ( 'NONE', #358, #729 ) ;
#206 = DIRECTION ( 'NONE',  ( 0.000000000000000000, -3.700743415417184787E-15, -1.000000000000000000 ) ) ;
#207 = EDGE_CURVE ( 'NONE', #152, #254, #275, .T. ) ;
#208 = CYLINDRICAL_SURFACE ( 'NONE', #793, 7.500000000000000000 ) ;
#209 = CARTESIAN_POINT ( 'NONE',  ( 0.000000000000000000, 58.23660000000062809, 80.00000000000001421 ) ) ;
#210 = CARTESIAN_POINT ( 'NONE',  ( -29.99999999999999289, 53.23660000000000281, 0.7365999999999970349 ) ) ;
#211 = LOCAL_TIME ( 19, 15, 57.00000000000000000, #313 ) ;
#212 = DIRECTION ( 'NONE',  ( 1.000000000000000000, 0.000000000000000000, 0.000000000000000000 ) ) ;
#213 = EDGE_CURVE ( 'NONE', #835, #881, #505, .T. ) ;
#214 = LINE ( 'NONE', #140, #577 ) ;
#215 = CARTESIAN_POINT ( 'NONE',  ( 0.000000000000000000, 32.50000000000000000, -5.000000000000002665 ) ) ;
#216 = DIRECTION ( 'NONE',  ( 0.000000000000000000, 1.000000000000000000, -3.532562060772768123E-15 ) ) ;
#217 = EDGE_CURVE ( 'NONE', #481, #602, #436, .T. ) ;
#218 = DIRECTION ( 'NONE',  ( -0.000000000000000000, -0.000000000000000000, 1.000000000000000000 ) ) ;
#219 = CYLINDRICAL_SURFACE ( 'NONE', #851, 7.500000000000000000 ) ;
#220 = MANIFOLD_SOLID_BREP ( 'Cut-Extrude5', #530 ) ;
#221 = CARTESIAN_POINT ( 'NONE',  ( 29.99999999999997158, 52.50000000000000711, 0.7365999999999995884 ) ) ;
#222 = CARTESIAN_POINT ( 'NONE',  ( 0.000000000000000000, 58.23660000000059966, 72.50000000000001421 ) ) ;
#223 = APPROVAL_STATUS ( 'not_yet_approved' ) ;
#224 = AXIS2_PLACEMENT_3D ( 'NONE', #165, #518, #385 ) ;
#225 = CARTESIAN_POINT ( 'NONE',  ( -29.99999999999998579, 52.50000000000000711, 0.7365999999999995884 ) ) ;
#226 = CARTESIAN_POINT ( 'NONE',  ( -29.99999999999999289, 58.23660000000000281, 0.7365999999999794934 ) ) ;
#227 = ORIENTED_EDGE ( 'NONE', *, *, #312, .T. ) ;
#228 = EDGE_CURVE ( 'NONE', #881, #254, #574, .T. ) ;
#229 = VERTEX_POINT ( 'NONE', #222 ) ;
#230 = DATE_AND_TIME ( #452, #211 ) ;
#231 = FACE_OUTER_BOUND ( 'NONE', #300, .T. ) ;
#232 = DIRECTION ( 'NONE',  ( 0.000000000000000000, -1.000000000000000000, 3.505967446184704325E-15 ) ) ;
#233 = ORIENTED_EDGE ( 'NONE', *, *, #228, .T. ) ;
#234 = ORIENTED_EDGE ( 'NONE', *, *, #355, .T. ) ;
#235 = PERSON_AND_ORGANIZATION_ROLE ( 'creator' ) ;
#236 = PLANE ( 'NONE',  #492 ) ;
#237 = LINE ( 'NONE', #92, #394 ) ;
#238 = EDGE_LOOP ( 'NONE', ( #685, #392 ) ) ;
#239 = ORIENTED_EDGE ( 'NONE', *, *, #556, .F. ) ;
#240 = COORDINATED_UNIVERSAL_TIME_OFFSET ( 5, 30, .AHEAD. ) ;
#241 = VECTOR ( 'NONE', #128, 1000.000000000000000 ) ;
#242 = ADVANCED_FACE ( 'NONE', ( #595, #172, #368 ), #534, .F. ) ;
#243 = CIRCLE ( 'NONE', #440, 7.500000000000000000 ) ;
#244 = LOCAL_TIME ( 19, 15, 57.00000000000000000, #671 ) ;
#245 = CARTESIAN_POINT ( 'NONE',  ( 4.598501486721789711, 39.50558732988704236, 0.000000000000000000 ) ) ;
#246 = ORIENTED_EDGE ( 'NONE', *, *, #288, .T. ) ;
#247 = VERTEX_POINT ( 'NONE', #226 ) ;
#248 = PRODUCT_DEFINITION_SHAPE ( 'NONE', 'NONE',  #515 ) ;
#249 = CC_DESIGN_DATE_AND_TIME_ASSIGNMENT ( #889, #307, ( #867 ) ) ;
#250 = CARTESIAN_POINT ( 'NONE',  ( 0.000000000000000000, 32.50000000000000000, 0.000000000000000000 ) ) ;
#251 = VERTEX_POINT ( 'NONE', #315 ) ;
#252 = EDGE_LOOP ( 'NONE', ( #102, #886, #311, #375 ) ) ;
#253 = DIRECTION ( 'NONE',  ( 0.000000000000000000, 0.000000000000000000, 1.000000000000000000 ) ) ;
#254 = VERTEX_POINT ( 'NONE', #585 ) ;
#255 = EDGE_CURVE ( 'NONE', #229, #251, #684, .T. ) ;
#256 = CARTESIAN_POINT ( 'NONE',  ( -30.00000000000000000, -50.00000000000000000, 0.000000000000000000 ) ) ;
#257 = CIRCLE ( 'NONE', #561, 7.500000000000000000 ) ;
#258 = DIRECTION ( 'NONE',  ( 0.000000000000000000, 0.000000000000000000, 1.000000000000000000 ) ) ;
#259 = VERTEX_POINT ( 'NONE', #467 ) ;
#260 = DIRECTION ( 'NONE',  ( 1.000000000000000000, 0.000000000000000000, 0.000000000000000000 ) ) ;
#261 = EDGE_CURVE ( 'NONE', #247, #918, #237, .T. ) ;
#262 = LINE ( 'NONE', #186, #748 ) ;
#263 = LINE ( 'NONE', #49, #866 ) ;
#264 = VERTEX_POINT ( 'NONE', #601 ) ;
#265 = DIRECTION ( 'NONE',  ( -1.000000000000000000, 0.000000000000000000, 0.000000000000000000 ) ) ;
#266 = DIRECTION ( 'NONE',  ( -0.000000000000000000, -1.000000000000000000, 3.505967446184704325E-15 ) ) ;
#267 = ORIENTED_EDGE ( 'NONE', *, *, #580, .T. ) ;
#268 = CARTESIAN_POINT ( 'NONE',  ( 0.000000000000000000, 0.000000000000000000, -5.000000000000000000 ) ) ;
#269 = EDGE_CURVE ( 'NONE', #676, #33, #161, .T. ) ;
#270 = LINE ( 'NONE', #943, #180 ) ;
#271 = VECTOR ( 'NONE', #498, 1000.000000000000000 ) ;
#272 = ORIENTED_EDGE ( 'NONE', *, *, #539, .T. ) ;
#273 = CIRCLE ( 'NONE', #638, 7.500000000000007105 ) ;
#274 = VERTEX_POINT ( 'NONE', #380 ) ;
#275 =( BOUNDED_CURVE ( )  B_SPLINE_CURVE ( 3, ( #146, #437, #730, #75 ),
 .UNSPECIFIED., .F., .T. ) 
 B_SPLINE_CURVE_WITH_KNOTS ( ( 4, 4 ),
 ( 1.613958756442998688, 4.669226550736587100 ),
 .UNSPECIFIED. ) 
 CURVE ( )  GEOMETRIC_REPRESENTATION_ITEM ( )  RATIONAL_B_SPLINE_CURVE ( ( 1.000000000000000000, 0.3620993526637316107, 0.3620993526637316107, 1.000000000000000000 ) ) 
 REPRESENTATION_ITEM ( '' )  );
#276 = LINE ( 'NONE', #923, #824 ) ;
#277 = EDGE_CURVE ( 'NONE', #57, #195, #516, .T. ) ;
#278 = ORIENTED_EDGE ( 'NONE', *, *, #352, .F. ) ;
#279 = CARTESIAN_POINT ( 'NONE',  ( 4.995343234695505785, 52.50000000000000711, 2.710505431213761085E-15 ) ) ;
#280 = CARTESIAN_POINT ( 'NONE',  ( -4.995343234695567958, 52.50000000000000711, 2.710505431213761085E-15 ) ) ;
#281 = DIRECTION ( 'NONE',  ( 1.000000000000000000, 0.000000000000000000, 0.000000000000000000 ) ) ;
#282 = FACE_BOUND ( 'NONE', #120, .T. ) ;
#283 = ADVANCED_FACE ( 'NONE', ( #740 ), #528, .F. ) ;
#284 = CARTESIAN_POINT ( 'NONE',  ( -29.99999999999998579, 52.50000000000000711, 0.7365999999999995884 ) ) ;
#285 = DIRECTION ( 'NONE',  ( -1.000000000000000000, 0.000000000000000000, 0.000000000000000000 ) ) ;
#286 = LINE ( 'NONE', #795, #637 ) ;
#287 = VECTOR ( 'NONE', #415, 1000.000000000000000 ) ;
#288 = EDGE_CURVE ( 'NONE', #247, #521, #133, .T. ) ;
#289 =( GEOMETRIC_REPRESENTATION_CONTEXT ( 3 ) GLOBAL_UNCERTAINTY_ASSIGNED_CONTEXT ( ( #461 ) ) GLOBAL_UNIT_ASSIGNED_CONTEXT ( ( #60, #499, #136 ) ) REPRESENTATION_CONTEXT ( 'NONE', 'WORKASPACE' ) );
#290 = DIRECTION ( 'NONE',  ( 0.000000000000000000, -3.700743415417188731E-15, -1.000000000000000000 ) ) ;
#291 = CARTESIAN_POINT ( 'NONE',  ( 7.500000000000000000, -30.00000000000000355, -5.000000000000002665 ) ) ;
#292 = CARTESIAN_POINT ( 'NONE',  ( -29.99999999999998579, 52.50000000000000711, -4.999999999999996447 ) ) ;
#293 = DIRECTION ( 'NONE',  ( 0.000000000000000000, -0.7071067811865477948, -0.7071067811865473507 ) ) ;
#294 = CARTESIAN_POINT ( 'NONE',  ( -2.000000000000027978, 61.83660000000000423, 9.031490289955975470 ) ) ;
#295 = APPLICATION_PROTOCOL_DEFINITION ( 'international standard', 'config_control_design', 1994, #723 ) ;
#296 = FACE_OUTER_BOUND ( 'NONE', #541, .T. ) ;
#297 = EDGE_CURVE ( 'NONE', #905, #264, #59, .T. ) ;
#298 = LINE ( 'NONE', #294, #13 ) ;
#299 = ORIENTED_EDGE ( 'NONE', *, *, #269, .T. ) ;
#300 = EDGE_LOOP ( 'NONE', ( #825, #93, #37, #107 ) ) ;
#301 = AXIS2_PLACEMENT_3D ( 'NONE', #627, #557, #696 ) ;
#302 = VECTOR ( 'NONE', #695, 1000.000000000000000 ) ;
#303 = CARTESIAN_POINT ( 'NONE',  ( 0.000000000000000000, 58.23660000000039361, 12.49999999999998401 ) ) ;
#304 = CARTESIAN_POINT ( 'NONE',  ( -29.99999999999999289, 58.23660000000032966, 95.00000000000001421 ) ) ;
#305 = ORIENTED_EDGE ( 'NONE', *, *, #819, .T. ) ;
#306 = ORIENTED_EDGE ( 'NONE', *, *, #621, .F. ) ;
#307 = DATE_TIME_ROLE ( 'classification_date' ) ;
#308 = CARTESIAN_POINT ( 'NONE',  ( -30.00000000000000000, -50.00000000000000000, -5.000000000000000000 ) ) ;
#309 = CARTESIAN_POINT ( 'NONE',  ( -4.999999999999719336, 52.95272616348979255, 0.1476643892721404283 ) ) ;
#310 = ORIENTED_EDGE ( 'NONE', *, *, #752, .T. ) ;
#311 = ORIENTED_EDGE ( 'NONE', *, *, #919, .T. ) ;
#312 = EDGE_CURVE ( 'NONE', #188, #18, #298, .T. ) ;
#313 = COORDINATED_UNIVERSAL_TIME_OFFSET ( 5, 30, .AHEAD. ) ;
#314 = CARTESIAN_POINT ( 'NONE',  ( -2.775557561562891351E-14, 61.83660000000000423, 9.031490289955975470 ) ) ;
#315 = CARTESIAN_POINT ( 'NONE',  ( 9.184850993605149917E-16, 58.23660000000065651, 87.50000000000002842 ) ) ;
#316 = ORIENTED_EDGE ( 'NONE', *, *, #381, .F. ) ;
#317 = ORIENTED_EDGE ( 'NONE', *, *, #23, .T. ) ;
#318 = DIRECTION ( 'NONE',  ( 0.000000000000000000, 0.000000000000000000, 1.000000000000000000 ) ) ;
#319 = AXIS2_PLACEMENT_3D ( 'NONE', #493, #582, #206 ) ;
#320 = CC_DESIGN_PERSON_AND_ORGANIZATION_ASSIGNMENT ( #153, #235, ( #515 ) ) ;
#321 = AXIS2_PLACEMENT_3D ( 'NONE', #904, #619, #475 ) ;
#322 = LOCAL_TIME ( 19, 15, 57.00000000000000000, #240 ) ;
#323 = CARTESIAN_POINT ( 'NONE',  ( 29.99999999999998579, 53.23660000000033676, 95.00000000000002842 ) ) ;
#324 = VERTEX_POINT ( 'NONE', #673 ) ;
#325 = ORIENTED_EDGE ( 'NONE', *, *, #70, .F. ) ;
#326 = CYLINDRICAL_SURFACE ( 'NONE', #459, 7.500000000000007105 ) ;
#327 = ORIENTED_EDGE ( 'NONE', *, *, #639, .F. ) ;
#328 = CARTESIAN_POINT ( 'NONE',  ( 0.000000000000000000, 58.23660000000032966, 95.00000000000001421 ) ) ;
#329 = CARTESIAN_POINT ( 'NONE',  ( 0.000000000000000000, 58.23660000000039361, 12.49999999999998401 ) ) ;
#330 = EDGE_CURVE ( 'NONE', #33, #324, #438, .T. ) ;
#331 = EDGE_LOOP ( 'NONE', ( #472, #760, #267, #831 ) ) ;
#332 = ORIENTED_EDGE ( 'NONE', *, *, #217, .T. ) ;
#333 = CYLINDRICAL_SURFACE ( 'NONE', #183, 0.7365999999999970349 ) ;
#334 = AXIS2_PLACEMENT_3D ( 'NONE', #929, #494, #868 ) ;
#335 = DIRECTION ( 'NONE',  ( 0.000000000000000000, -3.700743415417188731E-15, -1.000000000000000000 ) ) ;
#336 = ORIENTED_EDGE ( 'NONE', *, *, #738, .T. ) ;
#337 = CARTESIAN_POINT ( 'NONE',  ( 29.99999999999998579, 58.23660000000000281, -1.745740669421569518E-14 ) ) ;
#338 = LINE ( 'NONE', #36, #29 ) ;
#339 = ORIENTED_EDGE ( 'NONE', *, *, #159, .F. ) ;
#340 = ORIENTED_EDGE ( 'NONE', *, *, #297, .T. ) ;
#341 = ADVANCED_FACE ( 'NONE', ( #15 ), #168, .F. ) ;
#342 = DIRECTION ( 'NONE',  ( 0.000000000000000000, 0.000000000000000000, 1.000000000000000000 ) ) ;
#343 = ORIENTED_EDGE ( 'NONE', *, *, #569, .T. ) ;
#344 = CARTESIAN_POINT ( 'NONE',  ( -7.500000000000000000, -30.00000000000000355, 0.000000000000000000 ) ) ;
#345 = CC_DESIGN_DATE_AND_TIME_ASSIGNMENT ( #230, #148, ( #515 ) ) ;
#346 = CARTESIAN_POINT ( 'NONE',  ( -7.500000000000000000, 32.50000000000000000, -5.000000000000002665 ) ) ;
#347 = ORIENTED_EDGE ( 'NONE', *, *, #589, .T. ) ;
#348 = CIRCLE ( 'NONE', #334, 7.500000000000000000 ) ;
#349 = LINE ( 'NONE', #799, #474 ) ;
#350 = CARTESIAN_POINT ( 'NONE',  ( 0.000000000000000000, 58.23660000000042203, 19.99999999999998224 ) ) ;
#351 = DIRECTION ( 'NONE',  ( 0.000000000000000000, 0.000000000000000000, 1.000000000000000000 ) ) ;
#352 = EDGE_CURVE ( 'NONE', #264, #905, #72, .T. ) ;
#353 = LINE ( 'NONE', #788, #653 ) ;
#354 = LINE ( 'NONE', #794, #517 ) ;
#355 = EDGE_CURVE ( 'NONE', #174, #741, #122, .T. ) ;
#356 = CARTESIAN_POINT ( 'NONE',  ( 0.000000000000000000, 53.23660000000000281, -1.752983723092352273E-13 ) ) ;
#357 = CARTESIAN_POINT ( 'NONE',  ( 29.99999999999999289, -50.00000000000000000, -5.000000000000000000 ) ) ;
#358 = CARTESIAN_POINT ( 'NONE',  ( 7.500000000000000000, 32.50000000000000000, -5.000000000000002665 ) ) ;
#359 = CARTESIAN_POINT ( 'NONE',  ( -29.99999999999999289, 53.23660000000000281, 0.7365999999999970349 ) ) ;
#360 = VECTOR ( 'NONE', #63, 1000.000000000000000 ) ;
#361 = AXIS2_PLACEMENT_3D ( 'NONE', #209, #853, #429 ) ;
#362 = CARTESIAN_POINT ( 'NONE',  ( 4.995343234695505785, 52.50000000000000711, 2.710505431213761085E-15 ) ) ;
#363 = LINE ( 'NONE', #733, #407 ) ;
#364 = FACE_OUTER_BOUND ( 'NONE', #80, .T. ) ;
#365 = DATE_AND_TIME ( #371, #548 ) ;
#366 = EDGE_CURVE ( 'NONE', #370, #693, #547, .T. ) ;
#367 = CARTESIAN_POINT ( 'NONE',  ( -30.00000000000000000, -50.00000000000000000, -5.000000000000000000 ) ) ;
#368 = FACE_OUTER_BOUND ( 'NONE', #855, .T. ) ;
#369 = ORIENTED_EDGE ( 'NONE', *, *, #860, .T. ) ;
#370 = VERTEX_POINT ( 'NONE', #329 ) ;
#371 = CALENDAR_DATE ( 2026, 27, 7 ) ;
#372 = EDGE_CURVE ( 'NONE', #201, #735, #263, .T. ) ;
#373 = CARTESIAN_POINT ( 'NONE',  ( 1.999999999999972244, 61.83660000000000423, 9.031490289955975470 ) ) ;
#374 = DIRECTION ( 'NONE',  ( 0.000000000000000000, 0.000000000000000000, 1.000000000000000000 ) ) ;
#375 = ORIENTED_EDGE ( 'NONE', *, *, #791, .T. ) ;
#376 = ORIENTED_EDGE ( 'NONE', *, *, #768, .T. ) ;
#377 = APPROVAL_DATE_TIME ( #158, #526 ) ;
#378 = VECTOR ( 'NONE', #285, 1000.000000000000000 ) ;
#379 = VECTOR ( 'NONE', #579, 1000.000000000000000 ) ;
#380 = CARTESIAN_POINT ( 'NONE',  ( 7.500000000000000000, 32.50000000000000000, 0.000000000000000000 ) ) ;
#381 = EDGE_CURVE ( 'NONE', #782, #111, #480, .T. ) ;
#382 = EDGE_LOOP ( 'NONE', ( #834, #233, #912, #397 ) ) ;
#383 = ORIENTED_EDGE ( 'NONE', *, *, #76, .F. ) ;
#384 = MECHANICAL_CONTEXT ( 'NONE', #704, 'mechanical' ) ;
#385 = DIRECTION ( 'NONE',  ( 0.000000000000000000, 1.000000000000000000, -3.515350627240944098E-15 ) ) ;
#386 = DIRECTION ( 'NONE',  ( 1.000000000000000000, 0.000000000000000000, 0.000000000000000000 ) ) ;
#387 = EDGE_LOOP ( 'NONE', ( #823, #909, #117, #162 ) ) ;
#388 = EDGE_CURVE ( 'NONE', #563, #918, #198, .T. ) ;
#389 = ORIENTED_EDGE ( 'NONE', *, *, #738, .F. ) ;
#390 = CALENDAR_DATE ( 2026, 27, 7 ) ;
#391 = DIRECTION ( 'NONE',  ( 0.000000000000000000, -3.700743415417188731E-15, -1.000000000000000000 ) ) ;
#392 = ORIENTED_EDGE ( 'NONE', *, *, #330, .F. ) ;
#393 = ORIENTED_EDGE ( 'NONE', *, *, #399, .T. ) ;
#394 = VECTOR ( 'NONE', #815, 1000.000000000000000 ) ;
#395 = VECTOR ( 'NONE', #907, 1000.000000000000000 ) ;
#396 = DIRECTION ( 'NONE',  ( 0.000000000000000000, -1.000000000000000000, 3.505967446184704325E-15 ) ) ;
#397 = ORIENTED_EDGE ( 'NONE', *, *, #522, .T. ) ;
#398 = ORIENTED_EDGE ( 'NONE', *, *, #213, .F. ) ;
#399 = EDGE_CURVE ( 'NONE', #274, #837, #243, .T. ) ;
#400 = CARTESIAN_POINT ( 'NONE',  ( 0.000000000000000000, 0.000000000000000000, 0.000000000000000000 ) ) ;
#401 = VERTEX_POINT ( 'NONE', #616 ) ;
#402 = DIRECTION ( 'NONE',  ( 0.000000000000000000, 0.000000000000000000, 1.000000000000000000 ) ) ;
#403 = DIRECTION ( 'NONE',  ( -1.000000000000000000, -0.000000000000000000, -0.000000000000000000 ) ) ;
#404 = PLANE ( 'NONE',  #301 ) ;
#405 = ORIENTED_EDGE ( 'NONE', *, *, #752, .F. ) ;
#406 = LINE ( 'NONE', #633, #164 ) ;
#407 = VECTOR ( 'NONE', #876, 1000.000000000000000 ) ;
#408 = FACE_OUTER_BOUND ( 'NONE', #641, .T. ) ;
#409 = ORIENTED_EDGE ( 'NONE', *, *, #720, .F. ) ;
#410 = LOCAL_TIME ( 19, 15, 57.00000000000000000, #466 ) ;
#411 = EDGE_CURVE ( 'NONE', #229, #603, #338, .T. ) ;
#412 = DIRECTION ( 'NONE',  ( 1.000000000000000000, 0.000000000000000000, 0.000000000000000000 ) ) ;
#413 = DIRECTION ( 'NONE',  ( 0.000000000000000000, -3.700743415417184787E-15, -1.000000000000000000 ) ) ;
#414 = ORIENTED_EDGE ( 'NONE', *, *, #768, .F. ) ;
#415 = DIRECTION ( 'NONE',  ( 1.884033099078810086E-14, 0.000000000000000000, -1.000000000000000000 ) ) ;
#416 = DESIGN_CONTEXT ( 'detailed design', #723, 'design' ) ;
#417 = DIRECTION ( 'NONE',  ( 0.000000000000000000, 0.000000000000000000, 1.000000000000000000 ) ) ;
#418 = VERTEX_POINT ( 'NONE', #323 ) ;
#419 = CARTESIAN_POINT ( 'NONE',  ( -29.99999999999998579, 52.50000000000000711, 2.710505431213761085E-15 ) ) ;
#420 = CARTESIAN_POINT ( 'NONE',  ( 4.995343234695505785, 53.23660000000000281, 0.7365999999999970349 ) ) ;
#421 = ADVANCED_FACE ( 'NONE', ( #848, #770, #181 ), #538, .F. ) ;
#422 = CARTESIAN_POINT ( 'NONE',  ( -29.99999999999999289, 52.50000000000000711, -4.999999999999996447 ) ) ;
#423 = AXIS2_PLACEMENT_3D ( 'NONE', #682, #232, #26 ) ;
#424 = CIRCLE ( 'NONE', #927, 0.7365999999999970349 ) ;
#425 = FACE_OUTER_BOUND ( 'NONE', #81, .T. ) ;
#426 = VECTOR ( 'NONE', #293, 999.9999999999998863 ) ;
#427 = DIRECTION ( 'NONE',  ( 0.000000000000000000, -3.505967446184704325E-15, -1.000000000000000000 ) ) ;
#428 = ADVANCED_FACE ( 'NONE', ( #115 ), #44, .F. ) ;
#429 = DIRECTION ( 'NONE',  ( 0.000000000000000000, -3.700743415417184787E-15, -1.000000000000000000 ) ) ;
#430 = PLANE ( 'NONE',  #546 ) ;
#431 = FACE_OUTER_BOUND ( 'NONE', #491, .T. ) ;
#432 = DIRECTION ( 'NONE',  ( 0.000000000000000000, 1.000000000000000000, 0.000000000000000000 ) ) ;
#433 = DIRECTION ( 'NONE',  ( 0.000000000000000000, 0.000000000000000000, 1.000000000000000000 ) ) ;
#434 = CYLINDRICAL_SURFACE ( 'NONE', #199, 7.500000000000000000 ) ;
#435 = DIRECTION ( 'NONE',  ( 0.000000000000000000, 1.000000000000000000, -3.515350627240944098E-15 ) ) ;
#436 = CIRCLE ( 'NONE', #560, 7.500000000000000000 ) ;
#437 = CARTESIAN_POINT ( 'NONE',  ( 4.598501486721792375, 53.23660000000005255, 13.73101267011300841 ) ) ;
#438 = CIRCLE ( 'NONE', #531, 7.500000000000000000 ) ;
#439 = EDGE_CURVE ( 'NONE', #596, #676, #257, .T. ) ;
#440 = AXIS2_PLACEMENT_3D ( 'NONE', #250, #911, #110 ) ;
#441 = AXIS2_PLACEMENT_3D ( 'NONE', #225, #600, #435 ) ;
#442 = PERSON_AND_ORGANIZATION_ROLE ( 'creator' ) ;
#443 = CARTESIAN_POINT ( 'NONE',  ( 29.99999999999995737, 58.23660000000000281, 0.7365999999999792713 ) ) ;
#444 = CARTESIAN_POINT ( 'NONE',  ( -4.995343234695567958, 52.50000000000000711, 2.710505431213761085E-15 ) ) ;
#445 = ORIENTED_EDGE ( 'NONE', *, *, #819, .F. ) ;
#446 = EDGE_CURVE ( 'NONE', #753, #174, #844, .T. ) ;
#447 = CARTESIAN_POINT ( 'NONE',  ( 0.000000000000000000, 0.000000000000000000, 0.000000000000000000 ) ) ;
#448 = CARTESIAN_POINT ( 'NONE',  ( -2.000000000000027534, 58.23660000000003123, 11.08834453944839460 ) ) ;
#449 = CARTESIAN_POINT ( 'NONE',  ( 0.000000000000000000, -30.00000000000000355, 0.000000000000000000 ) ) ;
#450 = ORIENTED_EDGE ( 'NONE', *, *, #61, .F. ) ;
#451 = ORIENTED_EDGE ( 'NONE', *, *, #860, .F. ) ;
#452 = CALENDAR_DATE ( 2026, 27, 7 ) ;
#453 = ADVANCED_FACE ( 'NONE', ( #920 ), #549, .F. ) ;
#454 = DIRECTION ( 'NONE',  ( 0.000000000000000000, 1.000000000000000000, -3.532562060772768123E-15 ) ) ;
#455 = DIRECTION ( 'NONE',  ( 0.000000000000000000, -3.491481338843134144E-15, -1.000000000000000000 ) ) ;
#456 = ORIENTED_EDGE ( 'NONE', *, *, #207, .T. ) ;
#457 = EDGE_LOOP ( 'NONE', ( #817, #670, #27, #698 ) ) ;
#458 = COORDINATED_UNIVERSAL_TIME_OFFSET ( 5, 30, .AHEAD. ) ;
#459 = AXIS2_PLACEMENT_3D ( 'NONE', #701, #266, #413 ) ;
#460 = CIRCLE ( 'NONE', #715, 7.500000000000000000 ) ;
#461 = UNCERTAINTY_MEASURE_WITH_UNIT (LENGTH_MEASURE( 1.000000000000000082E-05 ), #60, 'distance_accuracy_value', 'NONE');
#462 = FACE_OUTER_BOUND ( 'NONE', #252, .T. ) ;
#463 = CARTESIAN_POINT ( 'NONE',  ( 0.000000000000000000, 53.23660000000007386, 20.00000000000000000 ) ) ;
#464 = ORIENTED_EDGE ( 'NONE', *, *, #539, .F. ) ;
#465 = ORIENTED_EDGE ( 'NONE', *, *, #791, .F. ) ;
#466 = COORDINATED_UNIVERSAL_TIME_OFFSET ( 5, 30, .AHEAD. ) ;
#467 = CARTESIAN_POINT ( 'NONE',  ( 29.99999999999997158, 52.50000000000000711, 2.710505431213761085E-15 ) ) ;
#468 = ORIENTED_EDGE ( 'NONE', *, *, #544, .T. ) ;
#469 = EDGE_LOOP ( 'NONE', ( #445, #316, #679, #97 ) ) ;
#470 = DIRECTION ( 'NONE',  ( -1.000000000000000000, 0.000000000000000000, -0.000000000000000000 ) ) ;
#471 = VERTEX_POINT ( 'NONE', #118 ) ;
#472 = ORIENTED_EDGE ( 'NONE', *, *, #269, .F. ) ;
#473 = EDGE_CURVE ( 'NONE', #476, #603, #273, .T. ) ;
#474 = VECTOR ( 'NONE', #649, 1000.000000000000000 ) ;
#475 = DIRECTION ( 'NONE',  ( 0.000000000000000000, 0.000000000000000000, 1.000000000000000000 ) ) ;
#476 = VERTEX_POINT ( 'NONE', #187 ) ;
#477 = CARTESIAN_POINT ( 'NONE',  ( -30.00000000000000000, -50.00000000000000000, -5.000000000000000000 ) ) ;
#478 = CC_DESIGN_PERSON_AND_ORGANIZATION_ASSIGNMENT ( #827, #171, ( #867 ) ) ;
#479 = DIRECTION ( 'NONE',  ( 1.000000000000000000, 0.000000000000000000, 0.000000000000000000 ) ) ;
#480 = LINE ( 'NONE', #833, #395 ) ;
#481 = VERTEX_POINT ( 'NONE', #612 ) ;
#482 = DIRECTION ( 'NONE',  ( 1.000000000000000000, 0.000000000000000000, 0.000000000000000000 ) ) ;
#483 = ADVANCED_FACE ( 'NONE', ( #408 ), #326, .F. ) ;
#484 = DIRECTION ( 'NONE',  ( 0.000000000000000000, -3.700743415417188731E-15, -1.000000000000000000 ) ) ;
#485 = ORIENTED_EDGE ( 'NONE', *, *, #665, .F. ) ;
#486 = DIRECTION ( 'NONE',  ( 0.000000000000000000, 0.000000000000000000, 1.000000000000000000 ) ) ;
#487 = CIRCLE ( 'NONE', #501, 7.500000000000000000 ) ;
#488 = AXIS2_PLACEMENT_3D ( 'NONE', #126, #281, #871 ) ;
#489 = DIRECTION ( 'NONE',  ( 1.000000000000000000, 0.000000000000000000, 0.000000000000000000 ) ) ;
#490 = CC_DESIGN_PERSON_AND_ORGANIZATION_ASSIGNMENT ( #5, #87, ( #583 ) ) ;
#491 = EDGE_LOOP ( 'NONE', ( #885, #299, #694, #710 ) ) ;
#492 = AXIS2_PLACEMENT_3D ( 'NONE', #308, #527, #873 ) ;
#493 = CARTESIAN_POINT ( 'NONE',  ( 0.000000000000000000, 53.23660000000027992, 80.00000000000002842 ) ) ;
#494 = DIRECTION ( 'NONE',  ( 0.000000000000000000, 0.000000000000000000, 1.000000000000000000 ) ) ;
#495 = ORIENTED_EDGE ( 'NONE', *, *, #213, .T. ) ;
#496 = CARTESIAN_POINT ( 'NONE',  ( -29.99999999999998579, 52.50000000000000711, 2.710505431213761085E-15 ) ) ;
#497 = DIRECTION ( 'NONE',  ( -0.000000000000000000, -0.000000000000000000, 1.000000000000000000 ) ) ;
#498 = DIRECTION ( 'NONE',  ( 1.000000000000000000, 0.000000000000000000, 0.000000000000000000 ) ) ;
#499 =( NAMED_UNIT ( * ) PLANE_ANGLE_UNIT ( ) SI_UNIT ( $, .RADIAN. ) );
#500 = CARTESIAN_POINT ( 'NONE',  ( 0.000000000000000000, -30.00000000000000355, -5.000000000000002665 ) ) ;
#501 = AXIS2_PLACEMENT_3D ( 'NONE', #846, #707, #412 ) ;
#502 = AXIS2_PLACEMENT_3D ( 'NONE', #144, #705, #417 ) ;
#503 = LINE ( 'NONE', #646, #241 ) ;
#504 = FACE_OUTER_BOUND ( 'NONE', #382, .T. ) ;
#505 =( BOUNDED_CURVE ( )  B_SPLINE_CURVE ( 3, ( #279, #245, #151, #444 ),
 .UNSPECIFIED., .F., .F. ) 
 B_SPLINE_CURVE_WITH_KNOTS ( ( 4, 4 ),
 ( 4.755551410032792248, 7.810819204326380216 ),
 .UNSPECIFIED. ) 
 CURVE ( )  GEOMETRIC_REPRESENTATION_ITEM ( )  RATIONAL_B_SPLINE_CURVE ( ( 1.000000000000000000, 0.3620993526637317772, 0.3620993526637317772, 1.000000000000000000 ) ) 
 REPRESENTATION_ITEM ( '' )  );
#506 = CARTESIAN_POINT ( 'NONE',  ( -29.99999999999999289, 52.50000000000000711, 0.7365999999999995884 ) ) ;
#507 = DIRECTION ( 'NONE',  ( -0.000000000000000000, -0.000000000000000000, 1.000000000000000000 ) ) ;
#508 = LINE ( 'NONE', #496, #625 ) ;
#509 = LINE ( 'NONE', #719, #762 ) ;
#510 = ADVANCED_FACE ( 'NONE', ( #542 ), #404, .T. ) ;
#511 = CARTESIAN_POINT ( 'NONE',  ( 29.99999999999998579, 58.23660000000032966, 95.00000000000001421 ) ) ;
#512 = APPROVAL_STATUS ( 'not_yet_approved' ) ;
#513 = CYLINDRICAL_SURFACE ( 'NONE', #699, 5.000000000000001776 ) ;
#514 = VECTOR ( 'NONE', #47, 1000.000000000000000 ) ;
#515 = PRODUCT_DEFINITION ( 'UNKNOWN', '', #532, #416 ) ;
#516 = LINE ( 'NONE', #96, #926 ) ;
#517 = VECTOR ( 'NONE', #934, 1000.000000000000000 ) ;
#518 = DIRECTION ( 'NONE',  ( -1.000000000000000000, -0.000000000000000000, -0.000000000000000000 ) ) ;
#519 = CARTESIAN_POINT ( 'NONE',  ( -7.500000000000000000, -30.00000000000000355, -5.000000000000002665 ) ) ;
#520 = VERTEX_POINT ( 'NONE', #716 ) ;
#521 = VERTEX_POINT ( 'NONE', #422 ) ;
#522 = EDGE_CURVE ( 'NONE', #101, #742, #424, .T. ) ;
#523 = DIRECTION ( 'NONE',  ( 1.000000000000000000, -0.000000000000000000, -0.000000000000000000 ) ) ;
#524 = CARTESIAN_POINT ( 'NONE',  ( 0.000000000000000000, 58.23660000000000281, -1.927557790034509067E-13 ) ) ;
#525 = EDGE_LOOP ( 'NONE', ( #278, #906 ) ) ;
#526 = APPROVAL ( #99, 'UNSPECIFIED' ) ;
#527 = DIRECTION ( 'NONE',  ( 0.000000000000000000, -1.000000000000000000, 0.000000000000000000 ) ) ;
#528 = PLANE ( 'NONE',  #104 ) ;
#529 = EDGE_LOOP ( 'NONE', ( #170, #169, #189, #617, #405, #239 ) ) ;
#530 = CLOSED_SHELL ( 'NONE', ( #840, #190, #453, #483, #83, #797, #242, #896, #887, #781, #645, #421, #510, #552, #725, #691, #52, #341, #173, #283, #687, #650, #109, #129, #428, #935, #16, #611 ) ) ;
#531 = AXIS2_PLACEMENT_3D ( 'NONE', #449, #374, #667 ) ;
#532 = PRODUCT_DEFINITION_FORMATION_WITH_SPECIFIED_SOURCE ( 'ANY', '', #583, .NOT_KNOWN. ) ;
#533 = CYLINDRICAL_SURFACE ( 'NONE', #901, 0.7365999999999970349 ) ;
#534 = PLANE ( 'NONE',  #147 ) ;
#535 = ORIENTED_EDGE ( 'NONE', *, *, #277, .T. ) ;
#536 =( BOUNDED_CURVE ( )  B_SPLINE_CURVE ( 3, ( #25, #605, #448, #672 ),
 .UNSPECIFIED., .F., .F. ) 
 B_SPLINE_CURVE_WITH_KNOTS ( ( 4, 4 ),
 ( 1.570796326794896114, 4.712388980384689674 ),
 .UNSPECIFIED. ) 
 CURVE ( )  GEOMETRIC_REPRESENTATION_ITEM ( )  RATIONAL_B_SPLINE_CURVE ( ( 1.000000000000000000, 0.3333333333333332038, 0.3333333333333332038, 1.000000000000000000 ) ) 
 REPRESENTATION_ITEM ( '' )  );
#537 = ORIENTED_EDGE ( 'NONE', *, *, #708, .F. ) ;
#538 = PLANE ( 'NONE',  #105 ) ;
#539 = EDGE_CURVE ( 'NONE', #481, #274, #205, .T. ) ;
#540 = ORIENTED_EDGE ( 'NONE', *, *, #35, .F. ) ;
#541 = EDGE_LOOP ( 'NONE', ( #620, #336, #736, #784 ) ) ;
#542 = FACE_OUTER_BOUND ( 'NONE', #116, .T. ) ;
#543 = ORIENTED_EDGE ( 'NONE', *, *, #255, .T. ) ;
#544 = EDGE_CURVE ( 'NONE', #18, #918, #276, .T. ) ;
#545 = CARTESIAN_POINT ( 'NONE',  ( 29.99999999999997158, 52.50000000000000711, 2.710505431213761085E-15 ) ) ;
#546 = AXIS2_PLACEMENT_3D ( 'NONE', #658, #717, #433 ) ;
#547 = CIRCLE ( 'NONE', #669, 7.500000000000000000 ) ;
#548 = LOCAL_TIME ( 19, 15, 57.00000000000000000, #458 ) ;
#549 = CYLINDRICAL_SURFACE ( 'NONE', #609, 7.500000000000000000 ) ;
#550 = ORIENTED_EDGE ( 'NONE', *, *, #681, .T. ) ;
#551 = LINE ( 'NONE', #256, #913 ) ;
#552 = ADVANCED_FACE ( 'NONE', ( #56 ), #801, .F. ) ;
#553 = CARTESIAN_POINT ( 'NONE',  ( 0.000000000000000000, -30.00000000000000355, -5.000000000000002665 ) ) ;
#554 = ORIENTED_EDGE ( 'NONE', *, *, #46, .T. ) ;
#555 = ORIENTED_EDGE ( 'NONE', *, *, #847, .T. ) ;
#556 = EDGE_CURVE ( 'NONE', #254, #101, #53, .T. ) ;
#557 = DIRECTION ( 'NONE',  ( 1.000000000000000000, 0.000000000000000000, 0.000000000000000000 ) ) ;
#558 = ORIENTED_EDGE ( 'NONE', *, *, #411, .T. ) ;
#559 = DIRECTION ( 'NONE',  ( 0.000000000000000000, 1.000000000000000000, 0.000000000000000000 ) ) ;
#560 = AXIS2_PLACEMENT_3D ( 'NONE', #856, #891, #884 ) ;
#561 = AXIS2_PLACEMENT_3D ( 'NONE', #553, #253, #106 ) ;
#562 = FACE_OUTER_BOUND ( 'NONE', #331, .T. ) ;
#563 = VERTEX_POINT ( 'NONE', #567 ) ;
#564 = VECTOR ( 'NONE', #114, 1000.000000000000000 ) ;
#565 = DIRECTION ( 'NONE',  ( 1.000000000000000000, 0.000000000000000000, 0.000000000000000000 ) ) ;
#566 = CARTESIAN_POINT ( 'NONE',  ( -29.99999999999999289, 58.23660000000000281, -1.927557790034509067E-13 ) ) ;
#567 = CARTESIAN_POINT ( 'NONE',  ( -2.000000000000029310, 52.50000000000000711, -4.999999999999997335 ) ) ;
#568 = ORIENTED_EDGE ( 'NONE', *, *, #39, .T. ) ;
#569 = EDGE_CURVE ( 'NONE', #676, #596, #134, .T. ) ;
#570 = CARTESIAN_POINT ( 'NONE',  ( -30.00000000000000000, -50.00000000000000000, 0.000000000000000000 ) ) ;
#571 = PLANE ( 'NONE',  #763 ) ;
#572 = CARTESIAN_POINT ( 'NONE',  ( 0.000000000000000000, -30.00000000000000355, -5.000000000000002665 ) ) ;
#573 = DIRECTION ( 'NONE',  ( 0.000000000000000000, -3.505967446184704325E-15, -1.000000000000000000 ) ) ;
#574 = B_SPLINE_CURVE_WITH_KNOTS ( 'NONE', 3,
 ( #874, #678, #734, #661, #309, #830, #745, #899 ),
 .UNSPECIFIED., .F., .F.,
 ( 4, 2, 2, 4 ),
 ( 1.942705399180931708E-20, 0.0002876905493067582879, 0.0005753810986135165758, 0.001150762197227033152 ),
 .UNSPECIFIED. ) ;
#575 = LINE ( 'NONE', #566, #610 ) ;
#576 = CYLINDRICAL_SURFACE ( 'NONE', #792, 7.500000000000000000 ) ;
#577 = VECTOR ( 'NONE', #432, 1000.000000000000000 ) ;
#578 = DIRECTION ( 'NONE',  ( -1.000000000000000000, 0.000000000000000000, 0.000000000000000000 ) ) ;
#579 = DIRECTION ( 'NONE',  ( -0.000000000000000000, -1.000000000000000000, 3.505967446184704325E-15 ) ) ;
#580 = EDGE_CURVE ( 'NONE', #596, #324, #68, .T. ) ;
#581 = CARTESIAN_POINT ( 'NONE',  ( -29.99999999999999289, 58.23660000000032966, 95.00000000000001421 ) ) ;
#582 = DIRECTION ( 'NONE',  ( 0.000000000000000000, -1.000000000000000000, 3.505967446184704325E-15 ) ) ;
#583 = PRODUCT ( 'L_bracket', 'L_bracket', '', ( #384 ) ) ;
#584 = CARTESIAN_POINT ( 'NONE',  ( 29.99999999999999289, -50.00000000000000000, 0.000000000000000000 ) ) ;
#585 = CARTESIAN_POINT ( 'NONE',  ( -4.995343234695560852, 53.23660000000000281, 0.7365999999999970349 ) ) ;
#586 = SHAPE_DEFINITION_REPRESENTATION ( #248, #67 ) ;
#587 = CYLINDRICAL_SURFACE ( 'NONE', #224, 5.736599999999994814 ) ;
#588 = DIRECTION ( 'NONE',  ( -0.000000000000000000, -0.000000000000000000, 1.000000000000000000 ) ) ;
#589 = EDGE_CURVE ( 'NONE', #608, #520, #270, .T. ) ;
#590 = EDGE_LOOP ( 'NONE', ( #697, #327 ) ) ;
#591 = ORIENTED_EDGE ( 'NONE', *, *, #919, .F. ) ;
#592 = VECTOR ( 'NONE', #84, 1000.000000000000000 ) ;
#593 = APPROVAL_ROLE ( '' ) ;
#594 = CARTESIAN_POINT ( 'NONE',  ( -2.000000000000027978, 47.80510971004402165, -5.000000000000002665 ) ) ;
#595 = FACE_BOUND ( 'NONE', #598, .T. ) ;
#596 = VERTEX_POINT ( 'NONE', #291 ) ;
#597 = EDGE_CURVE ( 'NONE', #195, #741, #354, .T. ) ;
#598 = EDGE_LOOP ( 'NONE', ( #754, #124 ) ) ;
#599 = CALENDAR_DATE ( 2026, 27, 7 ) ;
#600 = DIRECTION ( 'NONE',  ( -1.000000000000000000, -0.000000000000000000, -0.000000000000000000 ) ) ;
#601 = CARTESIAN_POINT ( 'NONE',  ( 0.000000000000000000, 53.23660000000004544, 12.50000000000000000 ) ) ;
#602 = VERTEX_POINT ( 'NONE', #346 ) ;
#603 = VERTEX_POINT ( 'NONE', #640 ) ;
#604 = APPROVAL_ROLE ( '' ) ;
#605 = CARTESIAN_POINT ( 'NONE',  ( 1.999999999999974243, 58.23660000000003123, 11.08834453944838927 ) ) ;
#606 = DIRECTION ( 'NONE',  ( 0.000000000000000000, -1.000000000000000000, 3.505967446184704325E-15 ) ) ;
#607 = ORIENTED_EDGE ( 'NONE', *, *, #113, .F. ) ;
#608 = VERTEX_POINT ( 'NONE', #581 ) ;
#609 = AXIS2_PLACEMENT_3D ( 'NONE', #123, #631, #779 ) ;
#610 = VECTOR ( 'NONE', #139, 1000.000000000000000 ) ;
#611 = ADVANCED_FACE ( 'NONE', ( #562 ), #576, .F. ) ;
#612 = CARTESIAN_POINT ( 'NONE',  ( 7.500000000000000000, 32.50000000000000000, -5.000000000000002665 ) ) ;
#613 = ORIENTED_EDGE ( 'NONE', *, *, #255, .F. ) ;
#614 = ORIENTED_EDGE ( 'NONE', *, *, #261, .F. ) ;
#615 = PRODUCT_RELATED_PRODUCT_CATEGORY ( 'detail', '', ( #583 ) ) ;
#616 = CARTESIAN_POINT ( 'NONE',  ( 1.999999999999972244, 47.80510971004402165, -5.000000000000002665 ) ) ;
#617 = ORIENTED_EDGE ( 'NONE', *, *, #23, .F. ) ;
#618 = LINE ( 'NONE', #914, #88 ) ;
#619 = DIRECTION ( 'NONE',  ( 1.000000000000000000, 0.000000000000000000, 0.000000000000000000 ) ) ;
#620 = ORIENTED_EDGE ( 'NONE', *, *, #446, .F. ) ;
#621 = EDGE_CURVE ( 'NONE', #251, #229, #777, .T. ) ;
#622 = LINE ( 'NONE', #477, #790 ) ;
#623 = CIRCLE ( 'NONE', #319, 7.500000000000007105 ) ;
#624 = AXIS2_PLACEMENT_3D ( 'NONE', #131, #137, #64 ) ;
#625 = VECTOR ( 'NONE', #718, 1000.000000000000000 ) ;
#626 = DIRECTION ( 'NONE',  ( 0.000000000000000000, -3.700743415417188731E-15, -1.000000000000000000 ) ) ;
#627 = CARTESIAN_POINT ( 'NONE',  ( 29.99999999999997158, 52.50000000000000711, 0.7365999999999995884 ) ) ;
#628 = EDGE_LOOP ( 'NONE', ( #28, #812, #157, #902, #540, #127, #98, #629 ) ) ;
#629 = ORIENTED_EDGE ( 'NONE', *, *, #878, .F. ) ;
#630 = EDGE_CURVE ( 'NONE', #471, #152, #509, .T. ) ;
#631 = DIRECTION ( 'NONE',  ( -0.000000000000000000, -1.000000000000000000, 3.505967446184704325E-15 ) ) ;
#632 = ORIENTED_EDGE ( 'NONE', *, *, #119, .T. ) ;
#633 = CARTESIAN_POINT ( 'NONE',  ( 29.99999999999998579, 53.23660000000033676, 95.00000000000002842 ) ) ;
#634 = DIRECTION ( 'NONE',  ( -1.000000000000000000, -0.000000000000000000, -0.000000000000000000 ) ) ;
#635 = EDGE_LOOP ( 'NONE', ( #450, #42, #930, #24 ) ) ;
#636 = ORIENTED_EDGE ( 'NONE', *, *, #185, .F. ) ;
#637 = VECTOR ( 'NONE', #203, 1000.000000000000000 ) ;
#638 = AXIS2_PLACEMENT_3D ( 'NONE', #841, #396, #688 ) ;
#639 = EDGE_CURVE ( 'NONE', #837, #274, #348, .T. ) ;
#640 = CARTESIAN_POINT ( 'NONE',  ( 0.000000000000000000, 53.23660000000025150, 72.50000000000002842 ) ) ;
#641 = EDGE_LOOP ( 'NONE', ( #306, #689, #9, #8 ) ) ;
#642 = FACE_BOUND ( 'NONE', #525, .T. ) ;
#643 = DIRECTION ( 'NONE',  ( -0.000000000000000000, -0.000000000000000000, 1.000000000000000000 ) ) ;
#644 = DIRECTION ( 'NONE',  ( 0.000000000000000000, -1.000000000000000000, 3.491481338843134144E-15 ) ) ;
#645 = ADVANCED_FACE ( 'NONE', ( #783 ), #858, .T. ) ;
#646 = CARTESIAN_POINT ( 'NONE',  ( 29.99999999999999289, -50.00000000000000000, -5.000000000000000000 ) ) ;
#647 = CARTESIAN_POINT ( 'NONE',  ( -7.500000000000000000, 32.50000000000000000, 0.000000000000000000 ) ) ;
#648 = DIRECTION ( 'NONE',  ( -0.000000000000000000, -0.000000000000000000, 1.000000000000000000 ) ) ;
#649 = DIRECTION ( 'NONE',  ( 0.000000000000000000, -1.000000000000000000, 3.491481338843134144E-15 ) ) ;
#650 = ADVANCED_FACE ( 'NONE', ( #709 ), #787, .F. ) ;
#651 = LINE ( 'NONE', #789, #167 ) ;
#652 = CARTESIAN_POINT ( 'NONE',  ( 7.500000000000000000, -30.00000000000000355, -5.000000000000002665 ) ) ;
#653 = VECTOR ( 'NONE', #936, 1000.000000000000000 ) ;
#654 = AXIS2_PLACEMENT_3D ( 'NONE', #304, #386, #21 ) ;
#655 = LINE ( 'NONE', #292, #804 ) ;
#656 = CC_DESIGN_APPROVAL ( #854, ( #867 ) ) ;
#657 = DIRECTION ( 'NONE',  ( -0.000000000000000000, -3.505967446184704325E-15, -1.000000000000000000 ) ) ;
#658 = CARTESIAN_POINT ( 'NONE',  ( 1.999999999999972244, 0.000000000000000000, 0.000000000000000000 ) ) ;
#659 = APPROVAL_ROLE ( '' ) ;
#660 = LINE ( 'NONE', #373, #426 ) ;
#661 = CARTESIAN_POINT ( 'NONE',  ( -5.000099797863930995, 52.87102951827062469, 0.09299212603979546687 ) ) ;
#662 = EDGE_LOOP ( 'NONE', ( #550, #227, #409, #376 ) ) ;
#663 = ORIENTED_EDGE ( 'NONE', *, *, #119, .F. ) ;
#664 = DIRECTION ( 'NONE',  ( 0.000000000000000000, 0.000000000000000000, 1.000000000000000000 ) ) ;
#665 = EDGE_CURVE ( 'NONE', #401, #753, #214, .T. ) ;
#666 = AXIS2_PLACEMENT_3D ( 'NONE', #79, #807, #7 ) ;
#667 = DIRECTION ( 'NONE',  ( 1.000000000000000000, 0.000000000000000000, 0.000000000000000000 ) ) ;
#668 = ORIENTED_EDGE ( 'NONE', *, *, #228, .F. ) ;
#669 = AXIS2_PLACEMENT_3D ( 'NONE', #916, #759, #484 ) ;
#670 = ORIENTED_EDGE ( 'NONE', *, *, #847, .F. ) ;
#671 = COORDINATED_UNIVERSAL_TIME_OFFSET ( 5, 30, .AHEAD. ) ;
#672 = CARTESIAN_POINT ( 'NONE',  ( -2.000000000000027978, 58.23660000000000991, 5.431490289955988260 ) ) ;
#673 = CARTESIAN_POINT ( 'NONE',  ( 7.500000000000000000, -30.00000000000000355, 0.000000000000000000 ) ) ;
#674 = EDGE_LOOP ( 'NONE', ( #332, #156 ) ) ;
#675 = PERSON ( 'UNSPECIFIED', 'UNSPECIFIED', 'UNSPECIFIED', ('UNSPECIFIED'), ('UNSPECIFIED'), ('UNSPECIFIED') ) ;
#676 = VERTEX_POINT ( 'NONE', #724 ) ;
#677 = CARTESIAN_POINT ( 'NONE',  ( 1.999999999999972244, 47.80510971004402165, -5.000000000000002665 ) ) ;
#678 = CARTESIAN_POINT ( 'NONE',  ( -4.998312777112269956, 52.59723639158725206, 2.689117849295589213E-15 ) ) ;
#679 = ORIENTED_EDGE ( 'NONE', *, *, #35, .T. ) ;
#680 = ORIENTED_EDGE ( 'NONE', *, *, #277, .F. ) ;
#681 = EDGE_CURVE ( 'NONE', #401, #188, #895, .T. ) ;
#682 = CARTESIAN_POINT ( 'NONE',  ( 0.000000000000000000, 58.23660000000062809, 80.00000000000001421 ) ) ;
#683 = ORIENTED_EDGE ( 'NONE', *, *, #366, .F. ) ;
#684 = CIRCLE ( 'NONE', #423, 7.500000000000007105 ) ;
#685 = ORIENTED_EDGE ( 'NONE', *, *, #2, .F. ) ;
#686 = AXIS2_PLACEMENT_3D ( 'NONE', #500, #342, #62 ) ;
#687 = ADVANCED_FACE ( 'NONE', ( #154 ), #513, .T. ) ;
#688 = DIRECTION ( 'NONE',  ( 0.000000000000000000, -3.700743415417184787E-15, -1.000000000000000000 ) ) ;
#689 = ORIENTED_EDGE ( 'NONE', *, *, #185, .T. ) ;
#690 = LINE ( 'NONE', #328, #514 ) ;
#691 = ADVANCED_FACE ( 'NONE', ( #462 ), #533, .F. ) ;
#692 = CARTESIAN_POINT ( 'NONE',  ( 0.000000000000000000, 58.23660000000062809, 80.00000000000001421 ) ) ;
#693 = VERTEX_POINT ( 'NONE', #828 ) ;
#694 = ORIENTED_EDGE ( 'NONE', *, *, #330, .T. ) ;
#695 = DIRECTION ( 'NONE',  ( 0.000000000000000000, 1.000000000000000000, 0.000000000000000000 ) ) ;
#696 = DIRECTION ( 'NONE',  ( 0.000000000000000000, 0.000000000000000000, -1.000000000000000000 ) ) ;
#697 = ORIENTED_EDGE ( 'NONE', *, *, #399, .F. ) ;
#698 = ORIENTED_EDGE ( 'NONE', *, *, #713, .T. ) ;
#699 = AXIS2_PLACEMENT_3D ( 'NONE', #314, #820, #12 ) ;
#700 = VECTOR ( 'NONE', #89, 1000.000000000000000 ) ;
#701 = CARTESIAN_POINT ( 'NONE',  ( 0.000000000000000000, 58.23660000000062809, 80.00000000000001421 ) ) ;
#702 = ORIENTED_EDGE ( 'NONE', *, *, #145, .F. ) ;
#703 = LINE ( 'NONE', #545, #287 ) ;
#704 = APPLICATION_CONTEXT ( 'configuration controlled 3d designs of mechanical parts and assemblies' ) ;
#705 = DIRECTION ( 'NONE',  ( -1.000000000000000000, 0.000000000000000000, 0.000000000000000000 ) ) ;
#706 = ORIENTED_EDGE ( 'NONE', *, *, #621, .T. ) ;
#707 = DIRECTION ( 'NONE',  ( 0.000000000000000000, 0.000000000000000000, 1.000000000000000000 ) ) ;
#708 = EDGE_CURVE ( 'NONE', #471, #741, #363, .T. ) ;
#709 = FACE_OUTER_BOUND ( 'NONE', #662, .T. ) ;
#710 = ORIENTED_EDGE ( 'NONE', *, *, #580, .F. ) ;
#711 = PLANE ( 'NONE',  #941 ) ;
#712 = CARTESIAN_POINT ( 'NONE',  ( 5.000099797863876816, 53.14360787396020669, 0.3655704817293916609 ) ) ;
#713 = EDGE_CURVE ( 'NONE', #418, #471, #883, .T. ) ;
#714 = AXIS2_PLACEMENT_3D ( 'NONE', #765, #773, #194 ) ;
#715 = AXIS2_PLACEMENT_3D ( 'NONE', #350, #937, #626 ) ;
#716 = CARTESIAN_POINT ( 'NONE',  ( -29.99999999999999289, 53.23660000000033676, 95.00000000000002842 ) ) ;
#717 = DIRECTION ( 'NONE',  ( -1.000000000000000000, 0.000000000000000000, 0.000000000000000000 ) ) ;
#718 = DIRECTION ( 'NONE',  ( 1.000000000000000000, 0.000000000000000000, 0.000000000000000000 ) ) ;
#719 = CARTESIAN_POINT ( 'NONE',  ( 29.99999999999998579, 53.23660000000000281, 0.7365999999999970349 ) ) ;
#720 = EDGE_CURVE ( 'NONE', #57, #18, #536, .T. ) ;
#721 = LINE ( 'NONE', #210, #360 ) ;
#722 = CARTESIAN_POINT ( 'NONE',  ( 0.000000000000000000, 58.23660000000042203, 19.99999999999998224 ) ) ;
#723 = APPLICATION_CONTEXT ( 'configuration controlled 3d designs of mechanical parts and assemblies' ) ;
#724 = CARTESIAN_POINT ( 'NONE',  ( -7.500000000000000000, -30.00000000000000355, -5.000000000000002665 ) ) ;
#725 = ADVANCED_FACE ( 'NONE', ( #231 ), #744, .T. ) ;
#726 = CARTESIAN_POINT ( 'NONE',  ( 1.999999999999972244, 58.23660000000000281, 0.7365999999999792713 ) ) ;
#727 = LINE ( 'NONE', #71, #302 ) ;
#728 = DIRECTION ( 'NONE',  ( 0.000000000000000000, 0.000000000000000000, 1.000000000000000000 ) ) ;
#729 = VECTOR ( 'NONE', #497, 1000.000000000000000 ) ;
#730 = CARTESIAN_POINT ( 'NONE',  ( -4.598501486721841225, 53.23660000000005255, 13.73101267011301019 ) ) ;
#731 = CC_DESIGN_APPROVAL ( #813, ( #515 ) ) ;
#732 = PERSON_AND_ORGANIZATION ( #675, #778 ) ;
#733 = CARTESIAN_POINT ( 'NONE',  ( 29.99999999999998579, 58.23660000000000281, 0.7365999999999794934 ) ) ;
#734 = CARTESIAN_POINT ( 'NONE',  ( -4.999271209836269492, 52.69269752431286946, 0.01913107177008075560 ) ) ;
#735 = VERTEX_POINT ( 'NONE', #584 ) ;
#736 = ORIENTED_EDGE ( 'NONE', *, *, #597, .T. ) ;
#737 = APPLICATION_PROTOCOL_DEFINITION ( 'international standard', 'config_control_design', 1994, #704 ) ;
#738 = EDGE_CURVE ( 'NONE', #753, #195, #903, .T. ) ;
#739 = CARTESIAN_POINT ( 'NONE',  ( -29.99999999999998579, 52.50000000000000711, 0.7365999999999995884 ) ) ;
#740 = FACE_OUTER_BOUND ( 'NONE', #179, .T. ) ;
#741 = VERTEX_POINT ( 'NONE', #443 ) ;
#742 = VERTEX_POINT ( 'NONE', #805 ) ;
#743 = PERSON_AND_ORGANIZATION_ROLE ( 'design_supplier' ) ;
#744 = CYLINDRICAL_SURFACE ( 'NONE', #441, 5.736599999999994814 ) ;
#745 = CARTESIAN_POINT ( 'NONE',  ( -5.001282227758083287, 53.23660000000000991, 0.5421302218241622617 ) ) ;
#746 = ORIENTED_EDGE ( 'NONE', *, *, #145, .T. ) ;
#747 = EDGE_LOOP ( 'NONE', ( #668, #398, #86, #456 ) ) ;
#748 = VECTOR ( 'NONE', #130, 1000.000000000000000 ) ;
#749 = PERSON_AND_ORGANIZATION ( #675, #778 ) ;
#750 = CARTESIAN_POINT ( 'NONE',  ( 29.99999999999998579, 53.23660000000000281, 7.243053670781897883E-17 ) ) ;
#751 = DIRECTION ( 'NONE',  ( 0.000000000000000000, -1.000000000000000000, 3.505967446184704325E-15 ) ) ;
#752 = EDGE_CURVE ( 'NONE', #101, #520, #74, .T. ) ;
#753 = VERTEX_POINT ( 'NONE', #3 ) ;
#754 = ORIENTED_EDGE ( 'NONE', *, *, #366, .T. ) ;
#755 = CARTESIAN_POINT ( 'NONE',  ( 29.99999999999998579, 58.23660000000032966, 95.00000000000001421 ) ) ;
#756 = EDGE_LOOP ( 'NONE', ( #702, #310, #845, #50 ) ) ;
#757 = CC_DESIGN_PERSON_AND_ORGANIZATION_ASSIGNMENT ( #732, #743, ( #532 ) ) ;
#758 = EDGE_LOOP ( 'NONE', ( #636, #613, #558, #175 ) ) ;
#759 = DIRECTION ( 'NONE',  ( 0.000000000000000000, -1.000000000000000000, 3.505967446184704325E-15 ) ) ;
#760 = ORIENTED_EDGE ( 'NONE', *, *, #439, .F. ) ;
#761 = DIRECTION ( 'NONE',  ( 1.000000000000000000, 0.000000000000000000, 0.000000000000000000 ) ) ;
#762 = VECTOR ( 'NONE', #200, 1000.000000000000000 ) ;
#763 = AXIS2_PLACEMENT_3D ( 'NONE', #357, #479, #870 ) ;
#764 = EDGE_CURVE ( 'NONE', #521, #782, #814, .T. ) ;
#765 = CARTESIAN_POINT ( 'NONE',  ( -2.000000000000029310, 52.50000000000000711, 0.7365999999999995884 ) ) ;
#766 = ORIENTED_EDGE ( 'NONE', *, *, #352, .T. ) ;
#767 = CARTESIAN_POINT ( 'NONE',  ( 0.000000000000000000, -30.00000000000000355, 0.000000000000000000 ) ) ;
#768 = EDGE_CURVE ( 'NONE', #57, #401, #660, .T. ) ;
#769 = CARTESIAN_POINT ( 'NONE',  ( 4.998312777112214889, 53.23660000000002412, 0.6393636084127504171 ) ) ;
#770 = FACE_BOUND ( 'NONE', #590, .T. ) ;
#771 = ORIENTED_EDGE ( 'NONE', *, *, #46, .F. ) ;
#772 = CYLINDRICAL_SURFACE ( 'NONE', #852, 7.500000000000000000 ) ;
#773 = DIRECTION ( 'NONE',  ( 1.000000000000000000, -0.000000000000000000, -0.000000000000000000 ) ) ;
#774 = ORIENTED_EDGE ( 'NONE', *, *, #908, .F. ) ;
#775 = CARTESIAN_POINT ( 'NONE',  ( 1.999999999999972244, 58.23660000000000991, 5.431490289955988260 ) ) ;
#776 = CIRCLE ( 'NONE', #865, 7.500000000000000000 ) ;
#777 = CIRCLE ( 'NONE', #361, 7.500000000000007105 ) ;
#778 = ORGANIZATION ( 'UNSPECIFIED', 'UNSPECIFIED', '' ) ;
#779 = DIRECTION ( 'NONE',  ( 0.000000000000000000, -3.700743415417188731E-15, -1.000000000000000000 ) ) ;
#780 = ORIENTED_EDGE ( 'NONE', *, *, #141, .T. ) ;
#781 = ADVANCED_FACE ( 'NONE', ( #20 ), #236, .T. ) ;
#782 = VERTEX_POINT ( 'NONE', #6 ) ;
#783 = FACE_OUTER_BOUND ( 'NONE', #635, .T. ) ;
#784 = ORIENTED_EDGE ( 'NONE', *, *, #355, .F. ) ;
#785 = FACE_OUTER_BOUND ( 'NONE', #387, .T. ) ;
#786 = DIRECTION ( 'NONE',  ( -0.000000000000000000, -1.000000000000000000, 3.505967446184704325E-15 ) ) ;
#787 = CYLINDRICAL_SURFACE ( 'NONE', #624, 1.999999999999996447 ) ;
#788 = CARTESIAN_POINT ( 'NONE',  ( -7.500000000000000000, 32.50000000000000000, -5.000000000000002665 ) ) ;
#789 = CARTESIAN_POINT ( 'NONE',  ( 29.99999999999998579, 58.23660000000000281, -1.927557790034509067E-13 ) ) ;
#790 = VECTOR ( 'NONE', #260, 1000.000000000000000 ) ;
#791 = EDGE_CURVE ( 'NONE', #259, #471, #135, .T. ) ;
#792 = AXIS2_PLACEMENT_3D ( 'NONE', #572, #218, #862 ) ;
#793 = AXIS2_PLACEMENT_3D ( 'NONE', #722, #786, #290 ) ;
#794 = CARTESIAN_POINT ( 'NONE',  ( 29.99999999999998579, 58.23660000000000281, 0.7365999999999794934 ) ) ;
#795 = CARTESIAN_POINT ( 'NONE',  ( 9.184850993605153861E-16, 58.23660000000065651, 87.50000000000002842 ) ) ;
#796 = CARTESIAN_POINT ( 'NONE',  ( 4.999271209836213536, 53.21746892822991981, 0.5439024756871408961 ) ) ;
#797 = ADVANCED_FACE ( 'NONE', ( #296 ), #587, .T. ) ;
#798 = CARTESIAN_POINT ( 'NONE',  ( 29.99999999999998579, 53.23660000000000281, 0.7365999999999970349 ) ) ;
#799 = CARTESIAN_POINT ( 'NONE',  ( 29.99999999999998579, 58.23660000000032966, 95.00000000000001421 ) ) ;
#800 = FACE_OUTER_BOUND ( 'NONE', #182, .T. ) ;
#801 = PLANE ( 'NONE',  #488 ) ;
#802 = FACE_OUTER_BOUND ( 'NONE', #529, .T. ) ;
#803 = CALENDAR_DATE ( 2026, 27, 7 ) ;
#804 = VECTOR ( 'NONE', #565, 1000.000000000000000 ) ;
#805 = CARTESIAN_POINT ( 'NONE',  ( -29.99999999999999289, 52.50000000000000711, 2.710505431213761085E-15 ) ) ;
#806 = VECTOR ( 'NONE', #648, 1000.000000000000000 ) ;
#807 = DIRECTION ( 'NONE',  ( -1.000000000000000000, -0.000000000000000000, -0.000000000000000000 ) ) ;
#808 = EDGE_CURVE ( 'NONE', #370, #264, #897, .T. ) ;
#809 = CARTESIAN_POINT ( 'NONE',  ( 1.999999999999973133, 42.14825546055163841, -4.999999999999999112 ) ) ;
#810 = DIRECTION ( 'NONE',  ( 0.000000000000000000, 1.000000000000000000, -3.491481338843134144E-15 ) ) ;
#811 = EDGE_LOOP ( 'NONE', ( #591, #495, #607, #192, #305, #554 ) ) ;
#812 = ORIENTED_EDGE ( 'NONE', *, *, #665, .T. ) ;
#813 = APPROVAL ( #512, 'UNSPECIFIED' ) ;
#814 = LINE ( 'NONE', #367, #700 ) ;
#815 = DIRECTION ( 'NONE',  ( 1.000000000000000000, -0.000000000000000000, -0.000000000000000000 ) ) ;
#816 = ORIENTED_EDGE ( 'NONE', *, *, #720, .T. ) ;
#817 = ORIENTED_EDGE ( 'NONE', *, *, #708, .T. ) ;
#818 = PERSON_AND_ORGANIZATION ( #675, #778 ) ;
#819 = EDGE_CURVE ( 'NONE', #111, #735, #262, .T. ) ;
#820 = DIRECTION ( 'NONE',  ( 0.000000000000000000, -0.7071067811865476838, -0.7071067811865473507 ) ) ;
#821 = VECTOR ( 'NONE', #859, 1000.000000000000000 ) ;
#822 = DIRECTION ( 'NONE',  ( 0.000000000000000000, -3.505967446184704325E-15, -1.000000000000000000 ) ) ;
#823 = ORIENTED_EDGE ( 'NONE', *, *, #878, .T. ) ;
#824 = VECTOR ( 'NONE', #938, 1000.000000000000000 ) ;
#825 = ORIENTED_EDGE ( 'NONE', *, *, #388, .F. ) ;
#826 = APPROVAL_PERSON_ORGANIZATION ( #749, #526, #604 ) ;
#827 = PERSON_AND_ORGANIZATION ( #675, #778 ) ;
#828 = CARTESIAN_POINT ( 'NONE',  ( 9.184850993605147944E-16, 58.23660000000045045, 27.49999999999998224 ) ) ;
#829 = EDGE_CURVE ( 'NONE', #247, #608, #575, .T. ) ;
#830 = CARTESIAN_POINT ( 'NONE',  ( -5.000000000000648370, 53.15656148989273078, 0.3513561022466414330 ) ) ;
#831 = ORIENTED_EDGE ( 'NONE', *, *, #2, .T. ) ;
#832 = ORIENTED_EDGE ( 'NONE', *, *, #372, .F. ) ;
#833 = CARTESIAN_POINT ( 'NONE',  ( -30.00000000000000000, -50.00000000000000000, -5.000000000000000000 ) ) ;
#834 = ORIENTED_EDGE ( 'NONE', *, *, #113, .T. ) ;
#835 = VERTEX_POINT ( 'NONE', #857 ) ;
#836 = DIRECTION ( 'NONE',  ( -0.000000000000000000, -1.000000000000000000, 3.505967446184704325E-15 ) ) ;
#837 = VERTEX_POINT ( 'NONE', #647 ) ;
#838 = PLANE ( 'NONE',  #875 ) ;
#839 = AXIS2_PLACEMENT_3D ( 'NONE', #463, #751, #335 ) ;
#840 = ADVANCED_FACE ( 'NONE', ( #431 ), #434, .F. ) ;
#841 = CARTESIAN_POINT ( 'NONE',  ( 0.000000000000000000, 53.23660000000027992, 80.00000000000002842 ) ) ;
#842 = ORIENTED_EDGE ( 'NONE', *, *, #70, .T. ) ;
#843 = CARTESIAN_POINT ( 'NONE',  ( -2.000000000000027978, 58.23660000000000991, 5.431490289955988260 ) ) ;
#844 = LINE ( 'NONE', #40, #166 ) ;
#845 = ORIENTED_EDGE ( 'NONE', *, *, #589, .F. ) ;
#846 = CARTESIAN_POINT ( 'NONE',  ( 0.000000000000000000, 32.50000000000000000, -5.000000000000002665 ) ) ;
#847 = EDGE_CURVE ( 'NONE', #94, #741, #651, .T. ) ;
#848 = FACE_BOUND ( 'NONE', #238, .T. ) ;
#849 = ORIENTED_EDGE ( 'NONE', *, *, #597, .F. ) ;
#850 = DIRECTION ( 'NONE',  ( 0.000000000000000000, 0.000000000000000000, -1.000000000000000000 ) ) ;
#851 = AXIS2_PLACEMENT_3D ( 'NONE', #215, #507, #142 ) ;
#852 = AXIS2_PLACEMENT_3D ( 'NONE', #121, #112, #761 ) ;
#853 = DIRECTION ( 'NONE',  ( 0.000000000000000000, -1.000000000000000000, 3.505967446184704325E-15 ) ) ;
#854 = APPROVAL ( #223, 'UNSPECIFIED' ) ;
#855 = EDGE_LOOP ( 'NONE', ( #680, #816, #468, #614, #917, #568, #555, #849 ) ) ;
#856 = CARTESIAN_POINT ( 'NONE',  ( 0.000000000000000000, 32.50000000000000000, -5.000000000000002665 ) ) ;
#857 = CARTESIAN_POINT ( 'NONE',  ( 4.995343234695505785, 52.50000000000000711, 2.710505431213761085E-15 ) ) ;
#858 = PLANE ( 'NONE',  #502 ) ;
#859 = DIRECTION ( 'NONE',  ( -2.091696925753183763E-30, 0.000000000000000000, -1.000000000000000000 ) ) ;
#860 = EDGE_CURVE ( 'NONE', #693, #905, #143, .T. ) ;
#861 = CARTESIAN_POINT ( 'NONE',  ( 5.001282227758029997, 52.69446977817585775, 2.754551144470985492E-15 ) ) ;
#862 = DIRECTION ( 'NONE',  ( 1.000000000000000000, 0.000000000000000000, 0.000000000000000000 ) ) ;
#863 = CARTESIAN_POINT ( 'NONE',  ( -29.99999999999999289, 52.50000000000000711, 2.710505431213761085E-15 ) ) ;
#864 = CARTESIAN_POINT ( 'NONE',  ( 9.184850993605147944E-16, 58.23660000000045045, 27.49999999999998224 ) ) ;
#865 = AXIS2_PLACEMENT_3D ( 'NONE', #767, #486, #482 ) ;
#866 = VECTOR ( 'NONE', #258, 1000.000000000000000 ) ;
#867 = SECURITY_CLASSIFICATION ( '', '', #77 ) ;
#868 = DIRECTION ( 'NONE',  ( 1.000000000000000000, 0.000000000000000000, 0.000000000000000000 ) ) ;
#869 = CARTESIAN_POINT ( 'NONE',  ( -2.000000000000027978, 47.80510971004402165, -5.000000000000002665 ) ) ;
#870 = DIRECTION ( 'NONE',  ( 0.000000000000000000, 0.000000000000000000, -1.000000000000000000 ) ) ;
#871 = DIRECTION ( 'NONE',  ( 0.000000000000000000, 0.000000000000000000, -1.000000000000000000 ) ) ;
#872 = DIRECTION ( 'NONE',  ( 1.000000000000000000, 0.000000000000000000, 0.000000000000000000 ) ) ;
#873 = DIRECTION ( 'NONE',  ( 0.000000000000000000, -0.000000000000000000, -1.000000000000000000 ) ) ;
#874 = CARTESIAN_POINT ( 'NONE',  ( -4.995343234695567958, 52.50000000000000711, 2.710505431213761085E-15 ) ) ;
#875 = AXIS2_PLACEMENT_3D ( 'NONE', #337, #265, #402 ) ;
#876 = DIRECTION ( 'NONE',  ( -0.000000000000000000, 1.000000000000000000, -3.491481338843133355E-15 ) ) ;
#877 = CC_DESIGN_SECURITY_CLASSIFICATION ( #867, ( #532 ) ) ;
#878 = EDGE_CURVE ( 'NONE', #188, #563, #727, .T. ) ;
#879 = DIRECTION ( 'NONE',  ( 0.000000000000000000, -1.000000000000000000, 3.505967446184704325E-15 ) ) ;
#880 = ORIENTED_EDGE ( 'NONE', *, *, #217, .F. ) ;
#881 = VERTEX_POINT ( 'NONE', #280 ) ;
#882 = APPROVAL_DATE_TIME ( #894, #813 ) ;
#883 = LINE ( 'NONE', #750, #34 ) ;
#884 = DIRECTION ( 'NONE',  ( 1.000000000000000000, 0.000000000000000000, 0.000000000000000000 ) ) ;
#885 = ORIENTED_EDGE ( 'NONE', *, *, #569, .F. ) ;
#886 = ORIENTED_EDGE ( 'NONE', *, *, #931, .T. ) ;
#887 = ADVANCED_FACE ( 'NONE', ( #915 ), #571, .T. ) ;
#888 = B_SPLINE_CURVE_WITH_KNOTS ( 'NONE', 3,
 ( #420, #769, #796, #712, #43, #66, #861, #362 ),
 .UNSPECIFIED., .F., .F.,
 ( 4, 2, 2, 4 ),
 ( 0.000000000000000000, 0.0002876905493067581253, 0.0005753810986135162505, 0.001150762197227032284 ),
 .UNSPECIFIED. ) ;
#889 = DATE_AND_TIME ( #390, #410 ) ;
#890 = CARTESIAN_POINT ( 'NONE',  ( -2.000000000000027534, 42.14825546055163841, -4.999999999999999112 ) ) ;
#891 = DIRECTION ( 'NONE',  ( 0.000000000000000000, 0.000000000000000000, 1.000000000000000000 ) ) ;
#892 = ORIENTED_EDGE ( 'NONE', *, *, #808, .F. ) ;
#893 = EDGE_LOOP ( 'NONE', ( #22, #343 ) ) ;
#894 = DATE_AND_TIME ( #803, #244 ) ;
#895 =( BOUNDED_CURVE ( )  B_SPLINE_CURVE ( 3, ( #677, #809, #890, #594 ),
 .UNSPECIFIED., .F., .T. ) 
 B_SPLINE_CURVE_WITH_KNOTS ( ( 4, 4 ),
 ( 4.712388980384689674, 7.853981633974482790 ),
 .UNSPECIFIED. ) 
 CURVE ( )  GEOMETRIC_REPRESENTATION_ITEM ( )  RATIONAL_B_SPLINE_CURVE ( ( 1.000000000000000000, 0.3333333333333333703, 0.3333333333333333703, 1.000000000000000000 ) ) 
 REPRESENTATION_ITEM ( '' )  );
#896 = ADVANCED_FACE ( 'NONE', ( #504 ), #333, .F. ) ;
#897 = LINE ( 'NONE', #303, #379 ) ;
#898 = AXIS2_PLACEMENT_3D ( 'NONE', #356, #4, #573 ) ;
#899 = CARTESIAN_POINT ( 'NONE',  ( -4.995343234695560852, 53.23660000000000281, 0.7365999999999970349 ) ) ;
#900 = ORIENTED_EDGE ( 'NONE', *, *, #639, .T. ) ;
#901 = AXIS2_PLACEMENT_3D ( 'NONE', #739, #78, #454 ) ;
#902 = ORIENTED_EDGE ( 'NONE', *, *, #141, .F. ) ;
#903 = CIRCLE ( 'NONE', #73, 5.736599999999997479 ) ;
#904 = CARTESIAN_POINT ( 'NONE',  ( 29.99999999999995737, 52.50000000000000711, 0.7365999999999995884 ) ) ;
#905 = VERTEX_POINT ( 'NONE', #204 ) ;
#906 = ORIENTED_EDGE ( 'NONE', *, *, #297, .F. ) ;
#907 = DIRECTION ( 'NONE',  ( 0.000000000000000000, 0.000000000000000000, 1.000000000000000000 ) ) ;
#908 = EDGE_CURVE ( 'NONE', #693, #370, #460, .T. ) ;
#909 = ORIENTED_EDGE ( 'NONE', *, *, #388, .T. ) ;
#910 = FACE_OUTER_BOUND ( 'NONE', #457, .T. ) ;
#911 = DIRECTION ( 'NONE',  ( 0.000000000000000000, 0.000000000000000000, 1.000000000000000000 ) ) ;
#912 = ORIENTED_EDGE ( 'NONE', *, *, #556, .T. ) ;
#913 = VECTOR ( 'NONE', #184, 1000.000000000000000 ) ;
#914 = CARTESIAN_POINT ( 'NONE',  ( 29.99999999999999289, -50.00000000000000000, 0.000000000000000000 ) ) ;
#915 = FACE_OUTER_BOUND ( 'NONE', #921, .T. ) ;
#916 = CARTESIAN_POINT ( 'NONE',  ( 0.000000000000000000, 58.23660000000042203, 19.99999999999998224 ) ) ;
#917 = ORIENTED_EDGE ( 'NONE', *, *, #829, .T. ) ;
#918 = VERTEX_POINT ( 'NONE', #940 ) ;
#919 = EDGE_CURVE ( 'NONE', #835, #259, #508, .T. ) ;
#920 = FACE_OUTER_BOUND ( 'NONE', #177, .T. ) ;
#921 = EDGE_LOOP ( 'NONE', ( #771, #832, #780, #325 ) ) ;
#922 = FACE_OUTER_BOUND ( 'NONE', #628, .T. ) ;
#923 = CARTESIAN_POINT ( 'NONE',  ( -2.000000000000027978, 58.23660000000000281, -1.927557790034509067E-13 ) ) ;
#924 = EDGE_LOOP ( 'NONE', ( #38, #746, #246, #41 ) ) ;
#925 = FACE_BOUND ( 'NONE', #674, .T. ) ;
#926 = VECTOR ( 'NONE', #822, 1000.000000000000000 ) ;
#927 = AXIS2_PLACEMENT_3D ( 'NONE', #506, #634, #351 ) ;
#928 = AXIS2_PLACEMENT_3D ( 'NONE', #447, #318, #872 ) ;
#929 = CARTESIAN_POINT ( 'NONE',  ( 0.000000000000000000, 32.50000000000000000, 0.000000000000000000 ) ) ;
#930 = ORIENTED_EDGE ( 'NONE', *, *, #764, .T. ) ;
#931 = EDGE_CURVE ( 'NONE', #152, #835, #888, .T. ) ;
#932 = CARTESIAN_POINT ( 'NONE',  ( -2.000000000000027978, 0.000000000000000000, 0.000000000000000000 ) ) ;
#933 = CARTESIAN_POINT ( 'NONE',  ( 0.000000000000000000, -30.00000000000000355, -5.000000000000002665 ) ) ;
#934 = DIRECTION ( 'NONE',  ( 1.000000000000000000, -0.000000000000000000, -0.000000000000000000 ) ) ;
#935 = ADVANCED_FACE ( 'NONE', ( #800 ), #208, .F. ) ;
#936 = DIRECTION ( 'NONE',  ( -0.000000000000000000, -0.000000000000000000, 1.000000000000000000 ) ) ;
#937 = DIRECTION ( 'NONE',  ( 0.000000000000000000, -1.000000000000000000, 3.505967446184704325E-15 ) ) ;
#938 = DIRECTION ( 'NONE',  ( 0.000000000000000000, -3.505967446184704325E-15, -1.000000000000000000 ) ) ;
#939 = CARTESIAN_POINT ( 'NONE',  ( 29.99999999999995737, 52.50000000000000711, -4.999999999999996447 ) ) ;
#940 = CARTESIAN_POINT ( 'NONE',  ( -2.000000000000029310, 58.23660000000000281, 0.7365999999999794934 ) ) ;
#941 = AXIS2_PLACEMENT_3D ( 'NONE', #932, #578, #132 ) ;
#942 = APPROVAL_PERSON_ORGANIZATION ( #82, #854, #659 ) ;
#943 = CARTESIAN_POINT ( 'NONE',  ( -29.99999999999999289, 58.23660000000032966, 95.00000000000001421 ) ) ;
ENDSEC;
END-ISO-10303-21;
